FiraCode-Light.ufo
<glyph name="percent" format="2">
  <advance width="1200"/>
  <unicode hex="0025"/>
  <outline>
    <contour>
      <point x="1056" y="1409" type="line"/>
      <point x="34" y="35" type="line"/>
      <point x="121" y="-35" type="line"/>
      <point x="1146" y="1339" type="line"/>
    </contour>
    <contour>
      <point x="862" y="527" type="curve" smooth="yes"/>
      <point x="945" y="527"/>
      <point x="1018" y="469"/>
      <point x="1018" y="314" type="curve" smooth="yes"/>
      <point x="1018" y="159"/>
      <point x="945" y="95"/>
      <point x="862" y="95" type="curve" smooth="yes"/>
      <point x="774" y="95"/>
      <point x="703" y="174"/>
      <point x="703" y="314" type="curve" smooth="yes"/>
      <point x="703" y="467"/>
      <point x="779" y="527"/>
    </contour>
    <contour>
      <point x="344" y="1283" type="curve" smooth="yes"/>
      <point x="427" y="1283"/>
      <point x="500" y="1226"/>
      <point x="500" y="1071" type="curve" smooth="yes"/>
      <point x="500" y="915"/>
      <point x="427" y="851"/>
      <point x="344" y="851" type="curve" smooth="yes"/>
      <point x="256" y="851"/>
      <point x="185" y="930"/>
      <point x="185" y="1071" type="curve" smooth="yes"/>
      <point x="185" y="1218"/>
      <point x="261" y="1283"/>
    </contour>
    <contour>
      <point x="344" y="1393" type="curve" smooth="yes"/>
      <point x="155" y="1393"/>
      <point x="46" y="1241"/>
      <point x="46" y="1071" type="curve" smooth="yes"/>
      <point x="46" y="906"/>
      <point x="155" y="744"/>
      <point x="344" y="744" type="curve" smooth="yes"/>
      <point x="533" y="744"/>
      <point x="639" y="906"/>
      <point x="639" y="1071" type="curve" smooth="yes"/>
      <point x="639" y="1237"/>
      <point x="533" y="1393"/>
    </contour>
    <contour>
      <point x="862" y="637" type="curve" smooth="yes"/>
      <point x="673" y="637"/>
      <point x="564" y="485"/>
      <point x="564" y="314" type="curve" smooth="yes"/>
      <point x="564" y="150"/>
      <point x="673" y="-12"/>
      <point x="862" y="-12" type="curve" smooth="yes"/>
      <point x="1051" y="-12"/>
      <point x="1157" y="150"/>
      <point x="1157" y="314" type="curve" smooth="yes"/>
      <point x="1157" y="481"/>
      <point x="1051" y="637"/>
    </contour>
  </outline>
</glyph>
<glyph name="asterisk" format="2">
  <advance width="1200"/>
  <unicode hex="002A"/>
  <outline>
    <contour>
      <point x="534" y="1149" type="line"/>
      <point x="666" y="1149" type="line"/>
      <point x="662" y="735" type="line"/>
      <point x="1052" y="864" type="line"/>
      <point x="1091" y="743" type="line"/>
      <point x="699" y="618" type="line"/>
      <point x="944" y="286" type="line"/>
      <point x="841" y="211" type="line"/>
      <point x="600" y="547" type="line"/>
      <point x="359" y="211" type="line"/>
      <point x="256" y="286" type="line"/>
      <point x="501" y="618" type="line"/>
      <point x="109" y="743" type="line"/>
      <point x="148" y="864" type="line"/>
      <point x="538" y="735" type="line"/>
    </contour>
  </outline>
</glyph>
<glyph name="slash" format="2">
  <advance width="1200"/>
  <unicode hex="002F"/>
  <outline>
    <contour>
      <point x="222" y="-201" type="line"/>
      <point x="1081" y="1563" type="line"/>
      <point x="980" y="1614" type="line"/>
      <point x="119" y="-156" type="line"/>
    </contour>
  </outline>
</glyph>
<glyph name="three" format="2">
  <advance width="1200"/>
  <unicode hex="0033"/>
  <outline>
    <contour>
      <point x="535" y="1393" type="curve" smooth="yes"/>
      <point x="410" y="1393"/>
      <point x="283" y="1350"/>
      <point x="169" y="1243" type="curve"/>
      <point x="241" y="1159" type="line"/>
      <point x="336" y="1248"/>
      <point x="415" y="1288"/>
      <point x="537" y="1288" type="curve" smooth="yes"/>
      <point x="689" y="1288"/>
      <point x="815" y="1201"/>
      <point x="815" y="1035" type="curve" smooth="yes"/>
      <point x="815" y="858"/>
      <point x="674" y="777"/>
      <point x="537" y="777" type="curve" smooth="yes"/>
      <point x="459" y="777" type="line"/>
      <point x="443" y="670" type="line"/>
      <point x="555" y="670" type="line" smooth="yes"/>
      <point x="723" y="670"/>
      <point x="855" y="604"/>
      <point x="855" y="392" type="curve" smooth="yes"/>
      <point x="855" y="207"/>
      <point x="736" y="89"/>
      <point x="528" y="89" type="curve" smooth="yes"/>
      <point x="414" y="89"/>
      <point x="294" y="135"/>
      <point x="217" y="227" type="curve"/>
      <point x="123" y="157" type="line"/>
      <point x="225" y="30"/>
      <point x="388" y="-20"/>
      <point x="527" y="-20" type="curve" smooth="yes"/>
      <point x="797" y="-20"/>
      <point x="987" y="159"/>
      <point x="987" y="399" type="curve" smooth="yes"/>
      <point x="987" y="608"/>
      <point x="831" y="725"/>
      <point x="679" y="734" type="curve"/>
      <point x="817" y="755"/>
      <point x="943" y="887"/>
      <point x="943" y="1052" type="curve" smooth="yes"/>
      <point x="943" y="1237"/>
      <point x="783" y="1393"/>
    </contour>
  </outline>
</glyph>
<glyph name="four" format="2">
  <advance width="1200"/>
  <unicode hex="0034"/>
  <outline>
    <contour>
      <point x="570" y="1393" type="line"/>
      <point x="160" y="444" type="line"/>
      <point x="160" y="348" type="line"/>
      <point x="1042" y="348" type="line"/>
      <point x="1042" y="452" type="line"/>
      <point x="294" y="452" type="line"/>
      <point x="672" y="1345" type="line"/>
    </contour>
    <contour>
      <point x="852" y="859" type="line"/>
      <point x="750" y="859" type="line"/>
      <point x="732" y="420" type="line"/>
      <point x="732" y="0" type="line"/>
      <point x="852" y="0" type="line"/>
    </contour>
  </outline>
</glyph>
<glyph name="F" format="2">
  <advance width="1200"/>
  <unicode hex="0046"/>
  <anchor x="600" y="0" name="bottom"/>
  <anchor x="600" y="1374" name="top"/>
  <outline>
    <contour>
      <point x="421" y="1260" type="line"/>
      <point x="1059" y="1260" type="line"/>
      <point x="1076" y="1374" type="line"/>
      <point x="295" y="1374" type="line"/>
      <point x="295" y="0" type="line"/>
      <point x="421" y="0" type="line"/>
      <point x="421" y="632" type="line"/>
      <point x="977" y="632" type="line"/>
      <point x="977" y="743" type="line"/>
      <point x="421" y="743" type="line"/>
    </contour>
  </outline>
</glyph>
<glyph name="G" format="2">
  <advance width="1200"/>
  <unicode hex="0047"/>
  <anchor x="663" y="0" name="bottom"/>
  <anchor x="660" y="1374" name="top"/>
  <outline>
    <contour>
      <point x="620" y="-20" type="curve" smooth="yes"/>
      <point x="817" y="-20"/>
      <point x="940" y="32"/>
      <point x="1060" y="94" type="curve"/>
      <point x="1060" y="741" type="line"/>
      <point x="611" y="741" type="line"/>
      <point x="629" y="622" type="line"/>
      <point x="928" y="622" type="line"/>
      <point x="928" y="172" type="line"/>
      <point x="839" y="123"/>
      <point x="744" y="98"/>
      <point x="640" y="98" type="curve" smooth="yes"/>
      <point x="383" y="98"/>
      <point x="245" y="277"/>
      <point x="245" y="688" type="curve" smooth="yes"/>
      <point x="245" y="1135"/>
      <point x="454" y="1275"/>
      <point x="657" y="1275" type="curve" smooth="yes"/>
      <point x="775" y="1275"/>
      <point x="871" y="1239"/>
      <point x="955" y="1159" type="curve"/>
      <point x="1040" y="1247" type="line"/>
      <point x="932" y="1346"/>
      <point x="834" y="1393"/>
      <point x="661" y="1393" type="curve" smooth="yes"/>
      <point x="383" y="1393"/>
      <point x="105" y="1162"/>
      <point x="105" y="687" type="curve" smooth="yes"/>
      <point x="105" y="211"/>
      <point x="314" y="-20"/>
    </contour>
  </outline>
</glyph>
<glyph name="Q" format="2">
  <advance width="1200"/>
  <unicode hex="0051"/>
  <anchor x="600" y="0" name="bottom"/>
  <anchor x="600" y="1374" name="top"/>
  <outline>
    <contour>
      <point x="1095" y="685" type="curve" smooth="yes"/>
      <point x="1095" y="1104"/>
      <point x="924" y="1393"/>
      <point x="597" y="1393" type="curve" smooth="yes"/>
      <point x="271" y="1393"/>
      <point x="99" y="1094"/>
      <point x="99" y="682" type="curve" smooth="yes"/>
      <point x="99" y="264"/>
      <point x="272" y="-16"/>
      <point x="580" y="-16" type="curve" smooth="yes"/>
      <point x="816" y="-16"/>
      <point x="921" y="-132"/>
      <point x="1003" y="-346" type="curve"/>
      <point x="1160" y="-280" type="line"/>
      <point x="1096" y="-85"/>
      <point x="998" y="7"/>
      <point x="812" y="45" type="curve"/>
      <point x="1020" y="163"/>
      <point x="1095" y="387"/>
    </contour>
    <contour>
      <point x="963" y="685" type="curve" smooth="yes"/>
      <point x="963" y="309"/>
      <point x="850" y="98"/>
      <point x="597" y="98" type="curve" smooth="yes"/>
      <point x="350" y="98"/>
      <point x="232" y="307"/>
      <point x="232" y="682" type="curve" smooth="yes"/>
      <point x="232" y="1059"/>
      <point x="342" y="1276"/>
      <point x="597" y="1276" type="curve" smooth="yes"/>
      <point x="851" y="1276"/>
      <point x="963" y="1061"/>
    </contour>
  </outline>
</glyph>
<glyph name="S" format="2">
  <advance width="1200"/>
  <unicode hex="0053"/>
  <anchor x="591" y="0" name="bottom"/>
  <anchor x="608" y="1374" name="top"/>
  <outline>
    <contour>
      <point x="1054" y="374" type="curve" smooth="yes"/>
      <point x="1054" y="640"/>
      <point x="857" y="723"/>
      <point x="657" y="779" type="curve" smooth="yes"/>
      <point x="382" y="859"/>
      <point x="291" y="924"/>
      <point x="291" y="1053" type="curve" smooth="yes"/>
      <point x="291" y="1204"/>
      <point x="428" y="1276"/>
      <point x="586" y="1276" type="curve" smooth="yes"/>
      <point x="704" y="1276"/>
      <point x="823" y="1238"/>
      <point x="923" y="1148" type="curve"/>
      <point x="1009" y="1242" type="line"/>
      <point x="895" y="1339"/>
      <point x="769" y="1393"/>
      <point x="586" y="1393" type="curve" smooth="yes"/>
      <point x="330" y="1393"/>
      <point x="163" y="1245"/>
      <point x="163" y="1053" type="curve" smooth="yes"/>
      <point x="163" y="831"/>
      <point x="349" y="739"/>
      <point x="605" y="665" type="curve" smooth="yes"/>
      <point x="855" y="592"/>
      <point x="922" y="520"/>
      <point x="922" y="377" type="curve" smooth="yes"/>
      <point x="922" y="185"/>
      <point x="752" y="97"/>
      <point x="576" y="97" type="curve" smooth="yes"/>
      <point x="402" y="97"/>
      <point x="283" y="155"/>
      <point x="190" y="245" type="curve"/>
      <point x="106" y="149" type="line"/>
      <point x="222" y="38"/>
      <point x="386" y="-20"/>
      <point x="569" y="-20" type="curve" smooth="yes"/>
      <point x="880" y="-20"/>
      <point x="1054" y="143"/>
    </contour>
  </outline>
</glyph>
<glyph name="T" format="2">
  <advance width="1200"/>
  <unicode hex="0054"/>
  <anchor x="598" y="0" name="bottom"/>
  <anchor x="680" y="0" name="bottomright"/>
  <anchor x="600" y="688" name="center"/>
  <anchor x="598" y="1374" name="top"/>
  <outline>
    <contour>
      <point x="660" y="1256" type="line"/>
      <point x="1091" y="1256" type="line"/>
      <point x="1105" y="1374" type="line"/>
      <point x="90" y="1374" type="line"/>
      <point x="90" y="1256" type="line"/>
      <point x="533" y="1256" type="line"/>
      <point x="533" y="0" type="line"/>
      <point x="660" y="0" type="line"/>
    </contour>
  </outline>
</glyph>
<glyph name="W" format="2">
  <advance width="1200"/>
  <unicode hex="0057"/>
  <anchor x="600" y="0" name="bottom"/>
  <anchor x="600" y="1374" name="top"/>
  <outline>
    <contour>
      <point x="1186" y="1374" type="line"/>
      <point x="1062" y="1374" type="line"/>
      <point x="869" y="164" type="line"/>
      <point x="697" y="1214" type="line"/>
      <point x="505" y="1214" type="line"/>
      <point x="325" y="164" type="line"/>
      <point x="148" y="1374" type="line"/>
      <point x="14" y="1374" type="line"/>
      <point x="220" y="0" type="line"/>
      <point x="420" y="0" type="line"/>
      <point x="593" y="1053" type="line"/>
      <point x="768" y="0" type="line"/>
      <point x="962" y="0" type="line"/>
    </contour>
  </outline>
</glyph>
<glyph name="X" format="2">
  <advance width="1200"/>
  <unicode hex="0058"/>
  <anchor x="600" y="0" name="bottom"/>
  <anchor x="1025" y="0" name="bottomright"/>
  <anchor x="600" y="1374" name="top"/>
  <outline>
    <contour>
      <point x="117" y="1374" type="line"/>
      <point x="522" y="733" type="line"/>
      <point x="78" y="0" type="line"/>
      <point x="217" y="0" type="line"/>
      <point x="596" y="650" type="line"/>
      <point x="968" y="0" type="line"/>
      <point x="1121" y="0" type="line"/>
      <point x="673" y="741" type="line"/>
      <point x="1070" y="1374" type="line"/>
      <point x="930" y="1374" type="line"/>
      <point x="600" y="820" type="line"/>
      <point x="270" y="1374" type="line"/>
    </contour>
  </outline>
</glyph>
<glyph name="Y" format="2">
  <advance width="1200"/>
  <unicode hex="0059"/>
  <anchor x="600" y="0" name="bottom"/>
  <anchor x="609" y="1374" name="top"/>
  <anchor x="66" y="1374" name="topleft"/>
  <outline>
    <contour>
      <point x="665" y="534" type="line"/>
      <point x="1134" y="1374" type="line"/>
      <point x="1003" y="1374" type="line"/>
      <point x="603" y="657" type="line"/>
      <point x="208" y="1374" type="line"/>
      <point x="66" y="1374" type="line"/>
      <point x="535" y="532" type="line"/>
      <point x="535" y="0" type="line"/>
      <point x="665" y="0" type="line"/>
    </contour>
  </outline>
</glyph>
<glyph name="Z" format="2">
  <advance width="1200"/>
  <unicode hex="005A"/>
  <anchor x="600" y="0" name="bottom"/>
  <anchor x="640" y="1374" name="top"/>
  <outline>
    <contour>
      <point x="295" y="117" type="line"/>
      <point x="1041" y="1263" type="line"/>
      <point x="1041" y="1374" type="line"/>
      <point x="234" y="1374" type="line"/>
      <point x="234" y="1257" type="line"/>
      <point x="911" y="1257" type="line"/>
      <point x="162" y="110" type="line"/>
      <point x="162" y="0" type="line"/>
      <point x="1017" y="0" type="line"/>
      <point x="1034" y="117" type="line"/>
    </contour>
  </outline>
</glyph>
<glyph name="bracketleft" format="2">
  <advance width="1200"/>
  <unicode hex="005B"/>
  <outline>
    <contour>
      <point x="385" y="-226" type="line"/>
      <point x="852" y="-226" type="line"/>
      <point x="852" y="-111" type="line"/>
      <point x="502" y="-111" type="line"/>
      <point x="502" y="1509" type="line"/>
      <point x="852" y="1509" type="line"/>
      <point x="852" y="1626" type="line"/>
      <point x="385" y="1626" type="line"/>
    </contour>
  </outline>
</glyph>
<glyph name="backslash" format="2">
  <advance width="1200"/>
  <unicode hex="005C"/>
  <outline>
    <contour>
      <point x="119" y="1563" type="line"/>
      <point x="978" y="-201" type="line"/>
      <point x="1081" y="-156" type="line"/>
      <point x="220" y="1614" type="line"/>
    </contour>
  </outline>
</glyph>
<glyph name="asciicircum" format="2">
  <advance width="1200"/>
  <unicode hex="005E"/>
  <outline>
    <contour>
      <point x="654" y="1676" type="line"/>
      <point x="546" y="1676" type="line"/>
      <point x="168" y="1054" type="line"/>
      <point x="308" y="1054" type="line"/>
      <point x="598" y="1551" type="line"/>
      <point x="887" y="1054" type="line"/>
      <point x="1032" y="1054" type="line"/>
    </contour>
  </outline>
</glyph>
<glyph name="grave" format="2">
  <advance width="1200"/>
  <unicode hex="0060"/>
  <anchor x="600" y="1050" name="_top"/>
  <outline>
    <contour>
      <point x="766" y="1244" type="line"/>
      <point x="811" y="1317" type="line"/>
      <point x="462" y="1545" type="line"/>
      <point x="382" y="1429" type="line"/>
    </contour>
  </outline>
</glyph>
<glyph name="a" format="2">
  <advance width="1200"/>
  <unicode hex="0061"/>
  <anchor x="600" y="0" name="bottom"/>
  <anchor x="1008" y="-21" name="ogonek"/>
  <anchor x="583" y="1050" name="top"/>
  <outline>
    <contour>
      <point x="932" y="207" type="curve" smooth="yes"/>
      <point x="932" y="739" type="line" smooth="yes"/>
      <point x="932" y="937"/>
      <point x="804" y="1069"/>
      <point x="558" y="1069" type="curve" smooth="yes"/>
      <point x="461" y="1069"/>
      <point x="361" y="1053"/>
      <point x="235" y="1006" type="curve"/>
      <point x="271" y="904" type="line"/>
      <point x="380" y="943"/>
      <point x="469" y="957"/>
      <point x="540" y="957" type="curve" smooth="yes"/>
      <point x="702" y="957"/>
      <point x="803" y="899"/>
      <point x="803" y="735" type="curve" smooth="yes"/>
      <point x="803" y="633" type="line"/>
      <point x="644" y="633" type="line" smooth="yes"/>
      <point x="327" y="633"/>
      <point x="157" y="516"/>
      <point x="157" y="303" type="curve" smooth="yes"/>
      <point x="157" y="107"/>
      <point x="283" y="-20"/>
      <point x="491" y="-20" type="curve" smooth="yes"/>
      <point x="629" y="-20"/>
      <point x="742" y="32"/>
      <point x="815" y="130" type="curve"/>
      <point x="840" y="34"/>
      <point x="908" y="-9"/>
      <point x="988" y="-21" type="curve"/>
      <point x="1022" y="70" type="line"/>
      <point x="961" y="88"/>
      <point x="932" y="121"/>
    </contour>
    <contour>
      <point x="515" y="79" type="curve" smooth="yes"/>
      <point x="364" y="79"/>
      <point x="294" y="153"/>
      <point x="294" y="299" type="curve" smooth="yes"/>
      <point x="294" y="443"/>
      <point x="380" y="538"/>
      <point x="629" y="538" type="curve" smooth="yes"/>
      <point x="803" y="538" type="line"/>
      <point x="803" y="238" type="line"/>
      <point x="733" y="138"/>
      <point x="629" y="79"/>
    </contour>
  </outline>
</glyph>
<glyph name="k" format="2">
  <advance width="1200"/>
  <unicode hex="006B"/>
  <anchor x="614" y="0" name="bottom"/>
  <anchor x="600" y="1475" name="top"/>
  <outline>
    <contour>
      <point x="1064" y="1050" type="line"/>
      <point x="879" y="1050" type="line"/>
      <point x="378" y="573" type="line"/>
      <point x="947" y="0" type="line"/>
      <point x="1126" y="0" type="line"/>
      <point x="553" y="575" type="line"/>
    </contour>
    <contour>
      <point x="357" y="1492" type="line"/>
      <point x="233" y="1475" type="line"/>
      <point x="233" y="0" type="line"/>
      <point x="357" y="0" type="line"/>
    </contour>
  </outline>
</glyph>
<glyph name="w" format="2">
  <advance width="1200"/>
  <unicode hex="0077"/>
  <anchor x="600" y="0" name="bottom"/>
  <anchor x="600" y="1050" name="top"/>
  <outline>
    <contour>
      <point x="963" y="0" type="line"/>
      <point x="1157" y="1050" type="line"/>
      <point x="1027" y="1050" type="line"/>
      <point x="874" y="76" type="line"/>
      <point x="698" y="916" type="line"/>
      <point x="519" y="916" type="line"/>
      <point x="334" y="76" type="line"/>
      <point x="180" y="1050" type="line"/>
      <point x="43" y="1050" type="line"/>
      <point x="246" y="0" type="line"/>
      <point x="445" y="0" type="line"/>
      <point x="608" y="790" type="line"/>
      <point x="758" y="0" type="line"/>
    </contour>
  </outline>
</glyph>
<glyph name="braceright" format="2">
  <advance width="1200"/>
  <unicode hex="007D"/>
  <outline>
    <contour>
      <point x="306" y="1668" type="curve"/>
      <point x="306" y="1562" type="line"/>
      <point x="461" y="1562"/>
      <point x="590" y="1521"/>
      <point x="577" y="1393" type="curve" smooth="yes"/>
      <point x="532" y="948" type="line" smooth="yes"/>
      <point x="517" y="798"/>
      <point x="570" y="723"/>
      <point x="711" y="697" type="curve"/>
      <point x="559" y="676"/>
      <point x="516" y="615"/>
      <point x="532" y="452" type="curve" smooth="yes"/>
      <point x="577" y="7" type="line" smooth="yes"/>
      <point x="590" y="-124"/>
      <point x="460" y="-162"/>
      <point x="306" y="-162" type="curve"/>
      <point x="306" y="-268" type="line"/>
      <point x="488" y="-268"/>
      <point x="716" y="-211"/>
      <point x="691" y="26" type="curve" smooth="yes"/>
      <point x="647" y="435" type="line" smooth="yes"/>
      <point x="633" y="566"/>
      <point x="689" y="651"/>
      <point x="958" y="651" type="curve"/>
      <point x="958" y="749" type="line"/>
      <point x="689" y="749"/>
      <point x="633" y="831"/>
      <point x="647" y="963" type="curve" smooth="yes"/>
      <point x="691" y="1373" type="line" smooth="yes"/>
      <point x="717" y="1612"/>
      <point x="488" y="1668"/>
    </contour>
  </outline>
</glyph>
<glyph name="asciitilde" format="2">
  <advance width="1200"/>
  <unicode hex="007E"/>
  <outline>
    <contour>
      <point x="412" y="784" type="curve" smooth="yes"/>
      <point x="235" y="784"/>
      <point x="153" y="649"/>
      <point x="100" y="547" type="curve"/>
      <point x="203" y="493" type="line"/>
      <point x="255" y="589"/>
      <point x="317" y="666"/>
      <point x="407" y="666" type="curve" smooth="yes"/>
      <point x="535" y="666"/>
      <point x="602" y="466"/>
      <point x="788" y="466" type="curve" smooth="yes"/>
      <point x="963" y="466"/>
      <point x="1049" y="608"/>
      <point x="1100" y="701" type="curve"/>
      <point x="997" y="757" type="line"/>
      <point x="946" y="664"/>
      <point x="878" y="584"/>
      <point x="793" y="584" type="curve" smooth="yes"/>
      <point x="670" y="584"/>
      <point x="614" y="784"/>
    </contour>
  </outline>
</glyph>
<glyph name="exclamdown" format="2">
  <advance width="1200"/>
  <unicode hex="00A1"/>
  <outline>
    <contour>
      <point x="653" y="533" type="line"/>
      <point x="541" y="533" type="line"/>
      <point x="522" y="-390" type="line"/>
      <point x="674" y="-390" type="line"/>
    </contour>
    <contour>
      <point x="597" y="989" type="curve" smooth="yes"/>
      <point x="529" y="989"/>
      <point x="479" y="937"/>
      <point x="479" y="869" type="curve" smooth="yes"/>
      <point x="479" y="803"/>
      <point x="529" y="749"/>
      <point x="597" y="749" type="curve" smooth="yes"/>
      <point x="665" y="749"/>
      <point x="719" y="803"/>
      <point x="719" y="869" type="curve" smooth="yes"/>
      <point x="719" y="937"/>
      <point x="665" y="989"/>
    </contour>
  </outline>
</glyph>
<glyph name="sterling" format="2">
  <advance width="1200"/>
  <unicode hex="00A3"/>
  <outline>
    <contour>
      <point x="689" y="1393" type="curve" smooth="yes"/>
      <point x="469" y="1393"/>
      <point x="332" y="1241"/>
      <point x="332" y="1039" type="curve"/>
      <point x="332" y="767" type="line"/>
      <point x="163" y="767" type="line"/>
      <point x="163" y="664" type="line"/>
      <point x="332" y="664" type="line"/>
      <point x="332" y="374" type="line" smooth="yes"/>
      <point x="332" y="259"/>
      <point x="329" y="160"/>
      <point x="168" y="109" type="curve"/>
      <point x="168" y="0" type="line"/>
      <point x="1005" y="0" type="line"/>
      <point x="1020" y="115" type="line"/>
      <point x="335" y="115" type="line"/>
      <point x="439" y="173"/>
      <point x="457" y="276"/>
      <point x="457" y="387" type="curve" smooth="yes"/>
      <point x="457" y="664" type="line"/>
      <point x="885" y="664" type="line"/>
      <point x="885" y="767" type="line"/>
      <point x="457" y="767" type="line"/>
      <point x="457" y="1022" type="line" smooth="yes"/>
      <point x="457" y="1189"/>
      <point x="537" y="1280"/>
      <point x="689" y="1280" type="curve" smooth="yes"/>
      <point x="792" y="1280"/>
      <point x="871" y="1243"/>
      <point x="942" y="1160" type="curve"/>
      <point x="1032" y="1230" type="line"/>
      <point x="945" y="1347"/>
      <point x="822" y="1393"/>
    </contour>
  </outline>
</glyph>
<glyph name="currency" format="2">
  <advance width="1200"/>
  <unicode hex="00A4"/>
  <outline>
    <contour>
      <point x="169" y="1218" type="line"/>
      <point x="71" y="1119" type="line"/>
      <point x="252" y="934" type="line"/>
      <point x="209" y="868"/>
      <point x="180" y="783"/>
      <point x="180" y="684" type="curve" smooth="yes"/>
      <point x="180" y="584"/>
      <point x="208" y="498"/>
      <point x="254" y="429" type="curve"/>
      <point x="71" y="247" type="line"/>
      <point x="169" y="148" type="line"/>
      <point x="352" y="331" type="line"/>
      <point x="420" y="287"/>
      <point x="505" y="263"/>
      <point x="602" y="263" type="curve" smooth="yes"/>
      <point x="697" y="263"/>
      <point x="779" y="287"/>
      <point x="845" y="331" type="curve"/>
      <point x="1031" y="149" type="line"/>
      <point x="1129" y="249" type="line"/>
      <point x="948" y="427" type="line"/>
      <point x="994" y="496"/>
      <point x="1026" y="581"/>
      <point x="1026" y="684" type="curve" smooth="yes"/>
      <point x="1026" y="782"/>
      <point x="996" y="870"/>
      <point x="950" y="936" type="curve"/>
      <point x="1129" y="1117" type="line"/>
      <point x="1031" y="1216" type="line"/>
      <point x="848" y="1033" type="line"/>
      <point x="782" y="1079"/>
      <point x="697" y="1103"/>
      <point x="602" y="1103" type="curve" smooth="yes"/>
      <point x="506" y="1103"/>
      <point x="420" y="1076"/>
      <point x="352" y="1033" type="curve"/>
    </contour>
    <contour>
      <point x="602" y="990" type="curve" smooth="yes"/>
      <point x="782" y="990"/>
      <point x="875" y="874"/>
      <point x="875" y="684" type="curve" smooth="yes"/>
      <point x="875" y="492"/>
      <point x="782" y="378"/>
      <point x="602" y="378" type="curve" smooth="yes"/>
      <point x="423" y="378"/>
      <point x="328" y="492"/>
      <point x="328" y="684" type="curve" smooth="yes"/>
      <point x="328" y="874"/>
      <point x="423" y="990"/>
    </contour>
  </outline>
</glyph>
<glyph name="dieresis" format="2">
  <advance width="1200"/>
  <unicode hex="00A8"/>
  <anchor x="600" y="1050" name="_top"/>
  <anchor x="600" y="1390" name="top"/>
  <outline>
    <contour>
      <point x="400" y="1303" type="curve" smooth="yes"/>
      <point x="450" y="1303"/>
      <point x="491" y="1341"/>
      <point x="491" y="1393" type="curve" smooth="yes"/>
      <point x="491" y="1448"/>
      <point x="450" y="1486"/>
      <point x="400" y="1486" type="curve" smooth="yes"/>
      <point x="345" y="1486"/>
      <point x="306" y="1448"/>
      <point x="306" y="1393" type="curve" smooth="yes"/>
      <point x="306" y="1341"/>
      <point x="345" y="1303"/>
    </contour>
    <contour>
      <point x="797" y="1303" type="curve" smooth="yes"/>
      <point x="851" y="1303"/>
      <point x="891" y="1341"/>
      <point x="891" y="1393" type="curve" smooth="yes"/>
      <point x="891" y="1448"/>
      <point x="851" y="1486"/>
      <point x="797" y="1486" type="curve" smooth="yes"/>
      <point x="745" y="1486"/>
      <point x="706" y="1448"/>
      <point x="706" y="1393" type="curve" smooth="yes"/>
      <point x="706" y="1341"/>
      <point x="745" y="1303"/>
    </contour>
  </outline>
</glyph>
<glyph name="logicalnot" format="2">
  <advance width="1200"/>
  <unicode hex="00AC"/>
  <outline>
    <contour>
      <point x="950" y="676" type="line"/>
      <point x="250" y="676" type="line"/>
      <point x="250" y="563" type="line"/>
      <point x="827" y="563" type="line"/>
      <point x="827" y="287" type="line"/>
      <point x="950" y="287" type="line"/>
    </contour>
  </outline>
</glyph>
<glyph name="micro" format="2">
  <advance width="1200"/>
  <unicode hex="00B5"/>
  <outline>
    <contour>
      <point x="943" y="1050" type="line"/>
      <point x="819" y="1050" type="line"/>
      <point x="819" y="275" type="line"/>
      <point x="755" y="187"/>
      <point x="655" y="102"/>
      <point x="512" y="102" type="curve" smooth="yes"/>
      <point x="335" y="102"/>
      <point x="315" y="241"/>
      <point x="315" y="464" type="curve" smooth="yes"/>
      <point x="315" y="1050" type="line"/>
      <point x="190" y="1050" type="line"/>
      <point x="190" y="-419" type="line"/>
      <point x="319" y="-401" type="line"/>
      <point x="319" y="-58" type="line" smooth="yes"/>
      <point x="319" y="-41"/>
      <point x="316" y="16"/>
      <point x="317" y="80" type="curve"/>
      <point x="366" y="6"/>
      <point x="418" y="-21"/>
      <point x="535" y="-21" type="curve" smooth="yes"/>
      <point x="643" y="-21"/>
      <point x="768" y="46"/>
      <point x="832" y="152" type="curve"/>
      <point x="838" y="104"/>
      <point x="862" y="13"/>
      <point x="887" y="-22" type="curve"/>
      <point x="1008" y="0" type="line"/>
      <point x="979" y="70"/>
      <point x="943" y="184"/>
      <point x="943" y="323" type="curve" smooth="yes"/>
    </contour>
  </outline>
</glyph>
<glyph name="paragraph" format="2">
  <advance width="1200"/>
  <unicode hex="00B6"/>
  <outline>
    <contour>
      <point x="1098" y="1374" type="line"/>
      <point x="609" y="1374" type="line" smooth="yes"/>
      <point x="275" y="1374"/>
      <point x="99" y="1197"/>
      <point x="99" y="979" type="curve" smooth="yes"/>
      <point x="99" y="768"/>
      <point x="272" y="586"/>
      <point x="614" y="591" type="curve"/>
      <point x="614" y="-419" type="line"/>
      <point x="735" y="-397" type="line"/>
      <point x="735" y="1256" type="line"/>
      <point x="977" y="1256" type="line"/>
      <point x="977" y="-419" type="line"/>
      <point x="1098" y="-397" type="line"/>
    </contour>
  </outline>
</glyph>
<glyph name="ordmasculine" format="2">
  <advance width="1200"/>
  <unicode hex="00BA"/>
  <outline>
    <contour>
      <point x="600" y="1492" type="curve" smooth="yes"/>
      <point x="361" y="1492"/>
      <point x="202" y="1316"/>
      <point x="202" y="1055" type="curve" smooth="yes"/>
      <point x="202" y="789"/>
      <point x="359" y="617"/>
      <point x="600" y="617" type="curve" smooth="yes"/>
      <point x="839" y="617"/>
      <point x="995" y="797"/>
      <point x="995" y="1055" type="curve" smooth="yes"/>
      <point x="995" y="1327"/>
      <point x="841" y="1492"/>
    </contour>
    <contour>
      <point x="988" y="132" type="line"/>
      <point x="215" y="132" type="line"/>
      <point x="215" y="0" type="line"/>
      <point x="988" y="0" type="line"/>
    </contour>
    <contour>
      <point x="600" y="1383" type="curve" smooth="yes"/>
      <point x="760" y="1383"/>
      <point x="859" y="1277"/>
      <point x="859" y="1055" type="curve" smooth="yes"/>
      <point x="859" y="832"/>
      <point x="760" y="724"/>
      <point x="600" y="724" type="curve" smooth="yes"/>
      <point x="440" y="724"/>
      <point x="338" y="832"/>
      <point x="338" y="1055" type="curve" smooth="yes"/>
      <point x="338" y="1277"/>
      <point x="440" y="1383"/>
    </contour>
  </outline>
</glyph>
<glyph name="questiondown" format="2">
  <advance width="1200"/>
  <unicode hex="00BF"/>
  <outline>
    <contour>
      <point x="651" y="989" type="curve" smooth="yes"/>
      <point x="584" y="989"/>
      <point x="533" y="937"/>
      <point x="533" y="869" type="curve" smooth="yes"/>
      <point x="533" y="803"/>
      <point x="584" y="749"/>
      <point x="651" y="749" type="curve" smooth="yes"/>
      <point x="720" y="749"/>
      <point x="773" y="803"/>
      <point x="773" y="869" type="curve" smooth="yes"/>
      <point x="773" y="937"/>
      <point x="720" y="989"/>
    </contour>
    <contour>
      <point x="727" y="533" type="line"/>
      <point x="593" y="533" type="line"/>
      <point x="593" y="455" type="line" smooth="yes"/>
      <point x="593" y="165"/>
      <point x="236" y="196"/>
      <point x="236" y="-122" type="curve" smooth="yes"/>
      <point x="236" y="-274"/>
      <point x="383" y="-423"/>
      <point x="611" y="-423" type="curve" smooth="yes"/>
      <point x="758" y="-423"/>
      <point x="896" y="-367"/>
      <point x="1013" y="-230" type="curve"/>
      <point x="917" y="-162" type="line"/>
      <point x="831" y="-270"/>
      <point x="720" y="-315"/>
      <point x="624" y="-315" type="curve" smooth="yes"/>
      <point x="477" y="-315"/>
      <point x="365" y="-244"/>
      <point x="365" y="-117" type="curve" smooth="yes"/>
      <point x="365" y="117"/>
      <point x="727" y="127"/>
      <point x="727" y="445" type="curve" smooth="yes"/>
    </contour>
  </outline>
</glyph>
<glyph name="divide" format="2">
  <advance width="1200"/>
  <unicode hex="00F7"/>
  <outline>
    <contour>
      <point x="950" y="676" type="line"/>
      <point x="250" y="676" type="line"/>
      <point x="250" y="563" type="line"/>
      <point x="950" y="563" type="line"/>
    </contour>
    <contour>
      <point x="600" y="358" type="curve" smooth="yes"/>
      <point x="533" y="358"/>
      <point x="479" y="305"/>
      <point x="479" y="240" type="curve" smooth="yes"/>
      <point x="479" y="171"/>
      <point x="533" y="118"/>
      <point x="600" y="118" type="curve" smooth="yes"/>
      <point x="667" y="118"/>
      <point x="721" y="171"/>
      <point x="721" y="240" type="curve" smooth="yes"/>
      <point x="721" y="305"/>
      <point x="667" y="358"/>
    </contour>
    <contour>
      <point x="600" y="1121" type="curve" smooth="yes"/>
      <point x="533" y="1121"/>
      <point x="479" y="1068"/>
      <point x="479" y="1003" type="curve" smooth="yes"/>
      <point x="479" y="933"/>
      <point x="533" y="883"/>
      <point x="600" y="883" type="curve" smooth="yes"/>
      <point x="667" y="883"/>
      <point x="721" y="933"/>
      <point x="721" y="1003" type="curve" smooth="yes"/>
      <point x="721" y="1068"/>
      <point x="667" y="1121"/>
    </contour>
  </outline>
</glyph>
<glyph name="oslash" format="2">
  <advance width="1200"/>
  <unicode hex="00F8"/>
  <anchor x="600" y="1050" name="top"/>
  <outline>
    <contour>
      <point x="603" y="1069" type="curve" smooth="yes"/>
      <point x="314" y="1069"/>
      <point x="166" y="844"/>
      <point x="166" y="523" type="curve" smooth="yes"/>
      <point x="166" y="200"/>
      <point x="326" y="-20"/>
      <point x="600" y="-20" type="curve" smooth="yes"/>
      <point x="886" y="-20"/>
      <point x="1034" y="213"/>
      <point x="1034" y="525" type="curve" smooth="yes"/>
      <point x="1034" y="857"/>
      <point x="876" y="1069"/>
    </contour>
    <contour>
      <point x="787" y="1303" type="line"/>
      <point x="708" y="1049" type="line"/>
      <point x="691" y="991" type="line"/>
      <point x="426" y="128" type="line"/>
      <point x="395" y="60" type="line"/>
      <point x="302" y="-223" type="line"/>
      <point x="415" y="-257" type="line"/>
      <point x="492" y="6" type="line"/>
      <point x="522" y="97" type="line"/>
      <point x="788" y="963" type="line"/>
      <point x="812" y="1001" type="line"/>
      <point x="901" y="1270" type="line"/>
    </contour>
    <contour>
      <point x="603" y="957" type="curve" smooth="yes"/>
      <point x="786" y="957"/>
      <point x="895" y="837"/>
      <point x="895" y="525" type="curve" smooth="yes"/>
      <point x="895" y="234"/>
      <point x="795" y="93"/>
      <point x="600" y="93" type="curve" smooth="yes"/>
      <point x="414" y="93"/>
      <point x="305" y="214"/>
      <point x="305" y="523" type="curve" smooth="yes"/>
      <point x="305" y="817"/>
      <point x="408" y="957"/>
    </contour>
  </outline>
</glyph>
<glyph name="Hbar" format="2">
  <advance width="1200"/>
  <unicode hex="0126"/>
  <outline>
    <contour>
      <point x="1019" y="1374" type="line"/>
      <point x="891" y="1374" type="line"/>
      <point x="891" y="781" type="line"/>
      <point x="309" y="781" type="line"/>
      <point x="309" y="1374" type="line"/>
      <point x="181" y="1374" type="line"/>
      <point x="181" y="0" type="line"/>
      <point x="309" y="0" type="line"/>
      <point x="309" y="670" type="line"/>
      <point x="891" y="670" type="line"/>
      <point x="891" y="0" type="line"/>
      <point x="1019" y="0" type="line"/>
    </contour>
    <contour>
      <point x="1196" y="1141" type="line"/>
      <point x="4" y="1141" type="line"/>
      <point x="4" y="1023" type="line"/>
      <point x="1196" y="1023" type="line"/>
    </contour>
  </outline>
</glyph>
<glyph name="ij" format="2">
  <advance width="1200"/>
  <unicode hex="0133"/>
  <outline>
    <contour>
      <point x="974" y="1050" type="line"/>
      <point x="115" y="1050" type="line"/>
      <point x="115" y="947" type="line"/>
      <point x="307" y="947" type="line"/>
      <point x="307" y="108" type="line"/>
      <point x="105" y="108" type="line"/>
      <point x="105" y="0" type="line"/>
      <point x="641" y="0" type="line"/>
      <point x="641" y="108" type="line"/>
      <point x="424" y="108" type="line"/>
      <point x="424" y="947" type="line"/>
      <point x="855" y="947" type="line"/>
      <point x="855" y="64" type="line" smooth="yes"/>
      <point x="855" y="-144"/>
      <point x="626" y="-246"/>
      <point x="456" y="-318" type="curve"/>
      <point x="490" y="-418" type="line"/>
      <point x="741" y="-334"/>
      <point x="974" y="-184"/>
      <point x="974" y="69" type="curve" smooth="yes"/>
    </contour>
    <contour>
      <point x="370" y="1525" type="curve" smooth="yes"/>
      <point x="309" y="1525"/>
      <point x="268" y="1481"/>
      <point x="268" y="1426" type="curve" smooth="yes"/>
      <point x="268" y="1367"/>
      <point x="309" y="1323"/>
      <point x="370" y="1323" type="curve" smooth="yes"/>
      <point x="430" y="1323"/>
      <point x="472" y="1367"/>
      <point x="472" y="1426" type="curve" smooth="yes"/>
      <point x="472" y="1481"/>
      <point x="430" y="1525"/>
    </contour>
    <contour>
      <point x="892" y="1525" type="curve" smooth="yes"/>
      <point x="831" y="1525"/>
      <point x="791" y="1481"/>
      <point x="791" y="1426" type="curve" smooth="yes"/>
      <point x="791" y="1367"/>
      <point x="831" y="1323"/>
      <point x="892" y="1323" type="curve" smooth="yes"/>
      <point x="953" y="1323"/>
      <point x="995" y="1367"/>
      <point x="995" y="1426" type="curve" smooth="yes"/>
      <point x="995" y="1481"/>
      <point x="953" y="1525"/>
    </contour>
  </outline>
</glyph>
<glyph name="eng" format="2">
  <advance width="1200"/>
  <unicode hex="014B"/>
  <outline>
    <contour>
      <point x="984" y="38" type="curve" smooth="yes"/>
      <point x="984" y="760" type="line" smooth="yes"/>
      <point x="984" y="953"/>
      <point x="897" y="1069"/>
      <point x="686" y="1069" type="curve" smooth="yes"/>
      <point x="563" y="1069"/>
      <point x="416" y="1006"/>
      <point x="333" y="897" type="curve"/>
      <point x="323" y="1050" type="line"/>
      <point x="219" y="1050" type="line"/>
      <point x="219" y="0" type="line"/>
      <point x="343" y="0" type="line"/>
      <point x="343" y="777" type="line"/>
      <point x="397" y="860"/>
      <point x="518" y="966"/>
      <point x="654" y="966" type="curve" smooth="yes"/>
      <point x="841" y="966"/>
      <point x="860" y="867"/>
      <point x="860" y="627" type="curve" smooth="yes"/>
      <point x="860" y="30" type="line" smooth="yes"/>
      <point x="860" y="-211"/>
      <point x="797" y="-260"/>
      <point x="659" y="-325" type="curve"/>
      <point x="708" y="-415" type="line"/>
      <point x="901" y="-326"/>
      <point x="984" y="-245"/>
    </contour>
  </outline>
</glyph>
<glyph name="oe" format="2">
  <advance width="1200"/>
  <unicode hex="0153"/>
  <outline>
    <contour>
      <point x="905" y="1069" type="curve" smooth="yes"/>
      <point x="750" y="1069"/>
      <point x="668" y="975"/>
      <point x="622" y="851" type="curve"/>
      <point x="576" y="981"/>
      <point x="502" y="1069"/>
      <point x="329" y="1069" type="curve" smooth="yes"/>
      <point x="96" y="1069"/>
      <point x="-2" y="844"/>
      <point x="-2" y="523" type="curve" smooth="yes"/>
      <point x="-2" y="200"/>
      <point x="101" y="-20"/>
      <point x="329" y="-20" type="curve" smooth="yes"/>
      <point x="494" y="-20"/>
      <point x="570" y="69"/>
      <point x="621" y="196" type="curve"/>
      <point x="671" y="59"/>
      <point x="771" y="-20"/>
      <point x="920" y="-20" type="curve" smooth="yes"/>
      <point x="1026" y="-20"/>
      <point x="1102" y="20"/>
      <point x="1183" y="83" type="curve"/>
      <point x="1118" y="185" type="line"/>
      <point x="1048" y="132"/>
      <point x="998" y="101"/>
      <point x="918" y="101" type="curve" smooth="yes"/>
      <point x="771" y="101"/>
      <point x="708" y="217"/>
      <point x="689" y="469" type="curve"/>
      <point x="1232" y="469" type="line"/>
      <point x="1233" y="493"/>
      <point x="1235" y="525"/>
      <point x="1235" y="561" type="curve" smooth="yes"/>
      <point x="1235" y="872"/>
      <point x="1134" y="1069"/>
    </contour>
    <contour>
      <point x="352" y="963" type="curve" smooth="yes"/>
      <point x="494" y="963"/>
      <point x="546" y="817"/>
      <point x="546" y="525" type="curve" smooth="yes"/>
      <point x="546" y="212"/>
      <point x="497" y="90"/>
      <point x="352" y="90" type="curve" smooth="yes"/>
      <point x="209" y="90"/>
      <point x="153" y="224"/>
      <point x="153" y="523" type="curve" smooth="yes"/>
      <point x="153" y="814"/>
      <point x="209" y="963"/>
    </contour>
    <contour>
      <point x="901" y="947" type="curve" smooth="yes"/>
      <point x="1045" y="947"/>
      <point x="1088" y="821"/>
      <point x="1093" y="589" type="curve"/>
      <point x="690" y="589" type="line"/>
      <point x="709" y="852"/>
      <point x="769" y="947"/>
    </contour>
  </outline>
</glyph>
<glyph name="hungarumlaut" format="2">
  <advance width="1200"/>
  <unicode hex="02DD"/>
  <anchor x="524" y="1050" name="_top"/>
  <outline>
    <contour>
      <point x="289" y="1325" type="line"/>
      <point x="382" y="1279" type="line"/>
      <point x="560" y="1596" type="line"/>
      <point x="431" y="1658" type="line"/>
    </contour>
    <contour>
      <point x="617" y="1323" type="line"/>
      <point x="706" y="1274" type="line"/>
      <point x="912" y="1589" type="line"/>
      <point x="785" y="1658" type="line"/>
    </contour>
  </outline>
</glyph>
<glyph name="gravecomb" format="2">
  <unicode hex="0300"/>
  <anchor x="600" y="1050" name="_top"/>
  <outline>
    <contour>
      <point x="436" y="1571" type="line"/>
      <point x="373" y="1455" type="line"/>
      <point x="775" y="1290" type="line"/>
      <point x="817" y="1360" type="line"/>
    </contour>
  </outline>
</glyph>
<glyph name="caroncomb" format="2">
  <unicode hex="030C"/>
  <anchor x="599" y="1050" name="_top"/>
  <outline>
    <contour>
      <point x="848" y="1432" type="line"/>
      <point x="599" y="1273" type="line"/>
      <point x="353" y="1432" type="line"/>
      <point x="289" y="1359" type="line"/>
      <point x="556" y="1158" type="line"/>
      <point x="645" y="1158" type="line"/>
      <point x="910" y="1359" type="line"/>
    </contour>
  </outline>
</glyph>
<glyph name="ypogegrammenicomb" format="2">
  <unicode hex="0345"/>
  <anchor x="470" y="0" name="_bottom"/>
  <anchor x="618" y="-368" name="bottom"/>
  <outline>
    <contour>
      <point x="610" y="-368" type="curve" smooth="yes"/>
      <point x="700" y="-368"/>
      <point x="759" y="-328"/>
      <point x="797" y="-299" type="curve"/>
      <point x="735" y="-225" type="line"/>
      <point x="698" y="-248"/>
      <point x="670" y="-261"/>
      <point x="619" y="-261" type="curve" smooth="yes"/>
      <point x="562" y="-261"/>
      <point x="532" y="-233"/>
      <point x="532" y="-175" type="curve" smooth="yes"/>
      <point x="532" y="-75" type="line"/>
      <point x="405" y="-75" type="line"/>
      <point x="405" y="-178" type="line" smooth="yes"/>
      <point x="405" y="-293"/>
      <point x="483" y="-368"/>
    </contour>
  </outline>
</glyph>
<glyph name="Lambda" format="2">
  <advance width="1200"/>
  <unicode hex="039B"/>
  <outline>
    <contour>
      <point x="684" y="1374" type="line"/>
      <point x="515" y="1374" type="line"/>
      <point x="68" y="0" type="line"/>
      <point x="190" y="0" type="line"/>
      <point x="595" y="1238" type="line"/>
      <point x="998" y="0" type="line"/>
      <point x="1130" y="0" type="line"/>
    </contour>
  </outline>
</glyph>
<glyph name="Omega" format="2">
  <advance width="1200"/>
  <unicode hex="03A9"/>
  <anchor x="603" y="0" name="bottom"/>
  <anchor x="600" y="1374" name="top"/>
  <anchor x="214" y="1374" name="topleft"/>
  <outline>
    <contour>
      <point x="600" y="1276" type="curve" smooth="yes"/>
      <point x="828" y="1276"/>
      <point x="957" y="1115"/>
      <point x="957" y="681" type="curve" smooth="yes"/>
      <point x="957" y="359"/>
      <point x="853" y="185"/>
      <point x="674" y="99" type="curve"/>
      <point x="674" y="0" type="line"/>
      <point x="1071" y="0" type="line"/>
      <point x="1071" y="112" type="line"/>
      <point x="828" y="112" type="line"/>
      <point x="992" y="203"/>
      <point x="1093" y="373"/>
      <point x="1093" y="681" type="curve" smooth="yes"/>
      <point x="1093" y="1150"/>
      <point x="895" y="1393"/>
      <point x="600" y="1393" type="curve" smooth="yes"/>
      <point x="305" y="1393"/>
      <point x="107" y="1150"/>
      <point x="107" y="681" type="curve" smooth="yes"/>
      <point x="107" y="373"/>
      <point x="203" y="198"/>
      <point x="370" y="112" type="curve"/>
      <point x="129" y="112" type="line"/>
      <point x="129" y="0" type="line"/>
      <point x="529" y="0" type="line"/>
      <point x="529" y="99" type="line"/>
      <point x="349" y="184"/>
      <point x="243" y="359"/>
      <point x="243" y="681" type="curve" smooth="yes"/>
      <point x="243" y="1115"/>
      <point x="369" y="1276"/>
    </contour>
  </outline>
</glyph>
<glyph name="alpha" format="2">
  <advance width="1200"/>
  <unicode hex="03B1"/>
  <anchor x="586" y="0" name="bottom"/>
  <anchor x="551" y="1050" name="top"/>
  <outline>
    <contour>
      <point x="515" y="1069" type="curve" smooth="yes"/>
      <point x="253" y="1069"/>
      <point x="131" y="839"/>
      <point x="131" y="514" type="curve" smooth="yes"/>
      <point x="131" y="149"/>
      <point x="272" y="-20"/>
      <point x="507" y="-20" type="curve" smooth="yes"/>
      <point x="688" y="-20"/>
      <point x="779" y="133"/>
      <point x="835" y="283" type="curve"/>
      <point x="851" y="168" type="line" smooth="yes"/>
      <point x="867" y="58"/>
      <point x="930" y="-8"/>
      <point x="1026" y="-22" type="curve"/>
      <point x="1072" y="91" type="line"/>
      <point x="1021" y="113"/>
      <point x="999" y="140"/>
      <point x="991" y="185" type="curve" smooth="yes"/>
      <point x="939" y="470" type="line"/>
      <point x="1023" y="1050" type="line"/>
      <point x="908" y="1050" type="line"/>
      <point x="851" y="726" type="line"/>
      <point x="800" y="997"/>
      <point x="689" y="1069"/>
    </contour>
    <contour>
      <point x="519" y="962" type="curve" smooth="yes"/>
      <point x="665" y="962"/>
      <point x="760" y="881"/>
      <point x="821" y="535" type="curve"/>
      <point x="746" y="154"/>
      <point x="617" y="88"/>
      <point x="511" y="88" type="curve" smooth="yes"/>
      <point x="350" y="88"/>
      <point x="271" y="225"/>
      <point x="271" y="514" type="curve" smooth="yes"/>
      <point x="271" y="801"/>
      <point x="360" y="962"/>
    </contour>
  </outline>
</glyph>
<glyph name="delta" format="2">
  <advance width="1200"/>
  <unicode hex="03B4"/>
  <anchor x="600" y="0" name="bottom"/>
  <anchor x="600" y="1475" name="top"/>
  <outline>
    <contour>
      <point x="635" y="1492" type="curve" smooth="yes"/>
      <point x="446" y="1492"/>
      <point x="280" y="1402"/>
      <point x="280" y="1224" type="curve" smooth="yes"/>
      <point x="280" y="1121"/>
      <point x="332" y="1045"/>
      <point x="473" y="973" type="curve"/>
      <point x="301" y="908"/>
      <point x="150" y="740"/>
      <point x="150" y="487" type="curve" smooth="yes"/>
      <point x="150" y="217"/>
      <point x="319" y="-20"/>
      <point x="608" y="-20" type="curve" smooth="yes"/>
      <point x="898" y="-20"/>
      <point x="1065" y="231"/>
      <point x="1065" y="484" type="curve" smooth="yes"/>
      <point x="1065" y="789"/>
      <point x="931" y="920"/>
      <point x="665" y="1030" type="curve" smooth="yes"/>
      <point x="485" y="1103"/>
      <point x="412" y="1133"/>
      <point x="412" y="1236" type="curve" smooth="yes"/>
      <point x="412" y="1335"/>
      <point x="495" y="1391"/>
      <point x="618" y="1391" type="curve" smooth="yes"/>
      <point x="712" y="1391"/>
      <point x="788" y="1372"/>
      <point x="884" y="1296" type="curve"/>
      <point x="950" y="1375" type="line"/>
      <point x="857" y="1452"/>
      <point x="770" y="1492"/>
    </contour>
    <contour>
      <point x="585" y="925" type="curve"/>
      <point x="842" y="819"/>
      <point x="925" y="733"/>
      <point x="925" y="484" type="curve" smooth="yes"/>
      <point x="925" y="231"/>
      <point x="808" y="90"/>
      <point x="609" y="90" type="curve" smooth="yes"/>
      <point x="410" y="90"/>
      <point x="291" y="243"/>
      <point x="291" y="481" type="curve" smooth="yes"/>
      <point x="291" y="696"/>
      <point x="375" y="839"/>
    </contour>
  </outline>
</glyph>
<glyph name="lambda" format="2">
  <advance width="1200"/>
  <unicode hex="03BB"/>
  <anchor x="600" y="0" name="bottom"/>
  <anchor x="600" y="1475" name="top"/>
  <outline>
    <contour>
      <point x="508" y="1050" type="line"/>
      <point x="110" y="3" type="line"/>
      <point x="227" y="-22" type="line"/>
      <point x="597" y="948" type="line"/>
      <point x="693" y="490"/>
      <point x="817" y="158"/>
      <point x="967" y="-20" type="curve"/>
      <point x="1098" y="34" type="line"/>
      <point x="930" y="191"/>
      <point x="830" y="542"/>
      <point x="715" y="1022" type="curve" smooth="yes"/>
      <point x="645" y="1318"/>
      <point x="520" y="1454"/>
      <point x="235" y="1499" type="curve"/>
      <point x="211" y="1390" type="line"/>
      <point x="431" y="1354"/>
      <point x="511" y="1249"/>
      <point x="566" y="1050" type="curve"/>
    </contour>
  </outline>
</glyph>
<glyph name="sigmafinal" format="2">
  <advance width="1200"/>
  <unicode hex="03C2"/>
  <anchor x="600" y="-386" name="bottom"/>
  <anchor x="600" y="1050" name="top"/>
  <outline>
    <contour>
      <point x="691" y="1069" type="curve" smooth="yes"/>
      <point x="424" y="1069"/>
      <point x="217" y="887"/>
      <point x="217" y="538" type="curve"/>
      <point x="217" y="282"/>
      <point x="337" y="163"/>
      <point x="597" y="70" type="curve" smooth="yes"/>
      <point x="819" y="-9"/>
      <point x="864" y="-27"/>
      <point x="864" y="-116" type="curve" smooth="yes"/>
      <point x="864" y="-224"/>
      <point x="775" y="-276"/>
      <point x="650" y="-322" type="curve"/>
      <point x="710" y="-420" type="line"/>
      <point x="913" y="-332"/>
      <point x="1004" y="-246"/>
      <point x="1004" y="-104" type="curve" smooth="yes"/>
      <point x="1004" y="49"/>
      <point x="882" y="106"/>
      <point x="678" y="181" type="curve" smooth="yes"/>
      <point x="407" y="278"/>
      <point x="353" y="334"/>
      <point x="353" y="538" type="curve"/>
      <point x="353" y="811"/>
      <point x="513" y="959"/>
      <point x="692" y="959" type="curve" smooth="yes"/>
      <point x="819" y="959"/>
      <point x="881" y="932"/>
      <point x="971" y="874" type="curve"/>
      <point x="1040" y="963" type="line"/>
      <point x="924" y="1044"/>
      <point x="836" y="1069"/>
    </contour>
  </outline>
</glyph>
<glyph name="tau" format="2">
  <advance width="1200"/>
  <unicode hex="03C4"/>
  <anchor x="600" y="0" name="bottom"/>
  <anchor x="600" y="1050" name="top"/>
  <outline>
    <contour>
      <point x="996" y="1050" type="line"/>
      <point x="419" y="1050" type="line"/>
      <point x="296" y="1050"/>
      <point x="190" y="1040"/>
      <point x="88" y="1006" type="curve"/>
      <point x="110" y="898" type="line"/>
      <point x="233" y="931"/>
      <point x="276" y="938"/>
      <point x="386" y="938" type="curve" smooth="yes"/>
      <point x="996" y="938" type="line"/>
    </contour>
    <contour>
      <point x="598" y="970" type="line"/>
      <point x="474" y="970" type="line"/>
      <point x="474" y="267" type="line" smooth="yes"/>
      <point x="474" y="84"/>
      <point x="591" y="-20"/>
      <point x="768" y="-20" type="curve" smooth="yes"/>
      <point x="852" y="-20"/>
      <point x="961" y="7"/>
      <point x="1001" y="30" type="curve"/>
      <point x="965" y="126" type="line"/>
      <point x="904" y="102"/>
      <point x="837" y="88"/>
      <point x="781" y="88" type="curve" smooth="yes"/>
      <point x="674" y="88"/>
      <point x="598" y="129"/>
      <point x="598" y="239" type="curve" smooth="yes"/>
    </contour>
  </outline>
</glyph>
<glyph name="omega" format="2">
  <advance width="1200"/>
  <unicode hex="03C9"/>
  <anchor x="598" y="0" name="bottom"/>
  <anchor x="600" y="1050" name="top"/>
  <outline>
    <contour>
      <point x="1040" y="1050" type="curve"/>
      <point x="914" y="1050" type="line"/>
      <point x="995" y="813"/>
      <point x="1007" y="662"/>
      <point x="1007" y="470" type="curve" smooth="yes"/>
      <point x="1007" y="257"/>
      <point x="969" y="90"/>
      <point x="836" y="90" type="curve" smooth="yes"/>
      <point x="704" y="90"/>
      <point x="670" y="254"/>
      <point x="670" y="455" type="curve" smooth="yes"/>
      <point x="670" y="738" type="line"/>
      <point x="529" y="721" type="line"/>
      <point x="529" y="459" type="line" smooth="yes"/>
      <point x="529" y="285"/>
      <point x="495" y="90"/>
      <point x="362" y="90" type="curve" smooth="yes"/>
      <point x="227" y="90"/>
      <point x="193" y="257"/>
      <point x="193" y="470" type="curve" smooth="yes"/>
      <point x="193" y="661"/>
      <point x="198" y="814"/>
      <point x="277" y="1050" type="curve"/>
      <point x="157" y="1050" type="line"/>
      <point x="106" y="931"/>
      <point x="60" y="741"/>
      <point x="60" y="475" type="curve" smooth="yes"/>
      <point x="60" y="162"/>
      <point x="152" y="-20"/>
      <point x="356" y="-20" type="curve" smooth="yes"/>
      <point x="486" y="-20"/>
      <point x="571" y="72"/>
      <point x="598" y="220" type="curve"/>
      <point x="611" y="65"/>
      <point x="697" y="-20"/>
      <point x="834" y="-20" type="curve" smooth="yes"/>
      <point x="1037" y="-20"/>
      <point x="1140" y="175"/>
      <point x="1140" y="475" type="curve" smooth="yes"/>
      <point x="1140" y="741"/>
      <point x="1088" y="930"/>
    </contour>
  </outline>
</glyph>
<glyph name="Koppa" format="2">
  <advance width="1200"/>
  <unicode hex="03DE"/>
  <anchor x="600" y="0" name="bottom"/>
  <anchor x="600" y="1374" name="top"/>
  <outline>
    <contour>
      <point x="434" y="0" type="line"/>
      <point x="588" y="0" type="line"/>
      <point x="1047" y="634" type="line"/>
      <point x="941" y="699" type="line"/>
    </contour>
    <contour>
      <point x="186" y="634" type="line"/>
      <point x="1046" y="634" type="line"/>
      <point x="1018" y="753" type="line"/>
      <point x="157" y="753" type="line"/>
    </contour>
    <contour>
      <point x="262" y="689" type="line"/>
      <point x="767" y="1374" type="line"/>
      <point x="613" y="1374" type="line"/>
      <point x="157" y="753" type="line"/>
    </contour>
  </outline>
</glyph>
<glyph name="kappaSymbol" format="2">
  <advance width="1200"/>
  <unicode hex="03F0"/>
  <anchor x="600" y="0" name="bottom"/>
  <anchor x="600" y="1050" name="top"/>
  <outline>
    <contour>
      <point x="431" y="-12" type="line"/>
      <point x="854" y="904" type="line"/>
      <point x="971" y="1008" type="line"/>
      <point x="769" y="1061" type="line"/>
      <point x="345" y="145" type="line"/>
      <point x="228" y="44" type="line"/>
    </contour>
    <contour>
      <point x="1017" y="-20" type="curve"/>
      <point x="1066" y="78" type="line"/>
      <point x="999" y="107"/>
      <point x="971" y="139"/>
      <point x="971" y="248" type="curve" smooth="yes"/>
      <point x="971" y="1008" type="line"/>
      <point x="854" y="904" type="line"/>
      <point x="860" y="861"/>
      <point x="830" y="409"/>
      <point x="830" y="293" type="curve" smooth="yes"/>
      <point x="830" y="115"/>
      <point x="868" y="25"/>
    </contour>
    <contour>
      <point x="182" y="1069" type="curve"/>
      <point x="133" y="972" type="line"/>
      <point x="200" y="943"/>
      <point x="228" y="910"/>
      <point x="228" y="802" type="curve" smooth="yes"/>
      <point x="228" y="44" type="line"/>
      <point x="345" y="145" type="line"/>
      <point x="339" y="189"/>
      <point x="369" y="641"/>
      <point x="369" y="756" type="curve" smooth="yes"/>
      <point x="369" y="935"/>
      <point x="331" y="1025"/>
    </contour>
  </outline>
</glyph>
<glyph name="sigmaLunateSymbol" format="2">
  <advance width="1200"/>
  <unicode hex="03F2"/>
  <anchor x="600" y="0" name="bottom"/>
  <anchor x="689" y="533" name="center"/>
  <anchor x="600" y="1050" name="top"/>
  <outline>
    <contour>
      <point x="669" y="94" type="curve" smooth="yes"/>
      <point x="475" y="94"/>
      <point x="335" y="227"/>
      <point x="335" y="521" type="curve" smooth="yes"/>
      <point x="335" y="811"/>
      <point x="475" y="959"/>
      <point x="669" y="959" type="curve" smooth="yes"/>
      <point x="763" y="959"/>
      <point x="855" y="926"/>
      <point x="950" y="861" type="curve"/>
      <point x="1016" y="950" type="line"/>
      <point x="918" y="1029"/>
      <point x="802" y="1069"/>
      <point x="675" y="1069" type="curve" smooth="yes"/>
      <point x="367" y="1069"/>
      <point x="197" y="833"/>
      <point x="197" y="521" type="curve" smooth="yes"/>
      <point x="197" y="192"/>
      <point x="368" y="-20"/>
      <point x="674" y="-20" type="curve" smooth="yes"/>
      <point x="786" y="-20"/>
      <point x="927" y="26"/>
      <point x="1019" y="103" type="curve"/>
      <point x="954" y="187" type="line"/>
      <point x="876" y="132"/>
      <point x="781" y="94"/>
    </contour>
  </outline>
</glyph>
<glyph name="SigmaLunateReversedSymbol" format="2">
  <advance width="1200"/>
  <unicode hex="03FD"/>
  <anchor x="600" y="0" name="bottom"/>
  <anchor x="477" y="688" name="center"/>
  <anchor x="600" y="1374" name="top"/>
  <outline>
    <contour>
      <point x="504" y="1393" type="curve" smooth="yes"/>
      <point x="326" y="1393"/>
      <point x="213" y="1347"/>
      <point x="99" y="1264" type="curve"/>
      <point x="164" y="1174" type="line"/>
      <point x="278" y="1250"/>
      <point x="391" y="1277"/>
      <point x="491" y="1277" type="curve" smooth="yes"/>
      <point x="751" y="1277"/>
      <point x="923" y="1132"/>
      <point x="923" y="687" type="curve" smooth="yes"/>
      <point x="923" y="254"/>
      <point x="724" y="98"/>
      <point x="476" y="98" type="curve" smooth="yes"/>
      <point x="318" y="98"/>
      <point x="222" y="151"/>
      <point x="150" y="212" type="curve"/>
      <point x="78" y="119" type="line"/>
      <point x="156" y="44"/>
      <point x="283" y="-20"/>
      <point x="474" y="-20" type="curve" smooth="yes"/>
      <point x="797" y="-20"/>
      <point x="1056" y="229"/>
      <point x="1056" y="687" type="curve" smooth="yes"/>
      <point x="1056" y="1151"/>
      <point x="843" y="1393"/>
    </contour>
  </outline>
</glyph>
<glyph name="Tshe-cy" format="2">
  <advance width="1200"/>
  <unicode hex="040B"/>
  <outline>
    <contour>
      <point x="810" y="1374" type="line"/>
      <point x="-7" y="1374" type="line"/>
      <point x="-7" y="1257" type="line"/>
      <point x="329" y="1257" type="line"/>
      <point x="329" y="0" type="line"/>
      <point x="463" y="0" type="line"/>
      <point x="463" y="643" type="line"/>
      <point x="519" y="693"/>
      <point x="602" y="762"/>
      <point x="743" y="762" type="curve" smooth="yes"/>
      <point x="923" y="762"/>
      <point x="989" y="675"/>
      <point x="989" y="465" type="curve" smooth="yes"/>
      <point x="989" y="0" type="line"/>
      <point x="1124" y="0" type="line"/>
      <point x="1124" y="490" type="line" smooth="yes"/>
      <point x="1124" y="747"/>
      <point x="1011" y="887"/>
      <point x="769" y="887" type="curve" smooth="yes"/>
      <point x="635" y="887"/>
      <point x="539" y="833"/>
      <point x="463" y="759" type="curve"/>
      <point x="463" y="1257" type="line"/>
      <point x="796" y="1257" type="line"/>
    </contour>
  </outline>
</glyph>
<glyph name="Be-cy" format="2">
  <advance width="1200"/>
  <unicode hex="0411"/>
  <anchor x="600" y="0" name="bottom"/>
  <anchor x="600" y="1374" name="top"/>
  <outline>
    <contour>
      <point x="966" y="1374" type="line"/>
      <point x="227" y="1374" type="line"/>
      <point x="227" y="0" type="line"/>
      <point x="537" y="0" type="line" smooth="yes"/>
      <point x="849" y="0"/>
      <point x="1069" y="102"/>
      <point x="1069" y="421" type="curve" smooth="yes"/>
      <point x="1069" y="711"/>
      <point x="866" y="827"/>
      <point x="539" y="827" type="curve" smooth="yes"/>
      <point x="355" y="827" type="line"/>
      <point x="355" y="1261" type="line"/>
      <point x="954" y="1261" type="line"/>
    </contour>
    <contour>
      <point x="577" y="719" type="line" smooth="yes"/>
      <point x="778" y="719"/>
      <point x="933" y="644"/>
      <point x="933" y="419" type="curve" smooth="yes"/>
      <point x="933" y="162"/>
      <point x="777" y="110"/>
      <point x="576" y="110" type="curve" smooth="yes"/>
      <point x="355" y="110" type="line"/>
      <point x="355" y="719" type="line"/>
    </contour>
  </outline>
</glyph>
<glyph name="Ze-cy" format="2">
  <advance width="1200"/>
  <unicode hex="0417"/>
  <anchor x="591" y="0" name="bottom"/>
  <anchor x="601" y="1374" name="top"/>
  <outline>
    <contour>
      <point x="560" y="1393" type="curve" smooth="yes"/>
      <point x="390" y="1393"/>
      <point x="248" y="1337"/>
      <point x="111" y="1225" type="curve"/>
      <point x="191" y="1140" type="line"/>
      <point x="299" y="1225"/>
      <point x="405" y="1280"/>
      <point x="567" y="1280" type="curve" smooth="yes"/>
      <point x="742" y="1280"/>
      <point x="885" y="1204"/>
      <point x="885" y="1043" type="curve" smooth="yes"/>
      <point x="885" y="871"/>
      <point x="726" y="800"/>
      <point x="567" y="800" type="curve" smooth="yes"/>
      <point x="352" y="800" type="line"/>
      <point x="337" y="679" type="line"/>
      <point x="585" y="679" type="line" smooth="yes"/>
      <point x="774" y="679"/>
      <point x="924" y="599"/>
      <point x="924" y="401" type="curve" smooth="yes"/>
      <point x="924" y="215"/>
      <point x="795" y="98"/>
      <point x="563" y="98" type="curve" smooth="yes"/>
      <point x="412" y="98"/>
      <point x="286" y="154"/>
      <point x="176" y="250" type="curve"/>
      <point x="87" y="176" type="line"/>
      <point x="206" y="50"/>
      <point x="375" y="-20"/>
      <point x="560" y="-20" type="curve" smooth="yes"/>
      <point x="871" y="-20"/>
      <point x="1068" y="170"/>
      <point x="1068" y="413" type="curve" smooth="yes"/>
      <point x="1068" y="629"/>
      <point x="902" y="739"/>
      <point x="745" y="752" type="curve"/>
      <point x="886" y="769"/>
      <point x="1021" y="868"/>
      <point x="1021" y="1038" type="curve" smooth="yes"/>
      <point x="1021" y="1247"/>
      <point x="845" y="1393"/>
    </contour>
  </outline>
</glyph>
<glyph name="Ka-cy" format="2">
  <advance width="1200"/>
  <unicode hex="041A"/>
  <anchor x="600" y="0" name="bottom"/>
  <anchor x="1050" y="0" name="bottomright"/>
  <anchor x="636" y="1374" name="top"/>
  <outline>
    <contour>
      <point x="512" y="665" type="line"/>
      <point x="994" y="0" type="line"/>
      <point x="1160" y="0" type="line"/>
      <point x="625" y="721" type="line"/>
      <point x="1122" y="1374" type="line"/>
      <point x="973" y="1374" type="line"/>
      <point x="517" y="784" type="line"/>
      <point x="342" y="784" type="line"/>
      <point x="342" y="1374" type="line"/>
      <point x="214" y="1374" type="line"/>
      <point x="214" y="0" type="line"/>
      <point x="342" y="0" type="line"/>
      <point x="342" y="665" type="line"/>
    </contour>
  </outline>
</glyph>
<glyph name="El-cy" format="2">
  <advance width="1200"/>
  <unicode hex="041B"/>
  <anchor x="600" y="0" name="bottom"/>
  <anchor x="1034" y="0" name="bottomright"/>
  <anchor x="600" y="1374" name="top"/>
  <outline>
    <contour>
      <point x="1014" y="1374" type="line"/>
      <point x="360" y="1374" type="line"/>
      <point x="271" y="719" type="line" smooth="yes"/>
      <point x="197" y="203"/>
      <point x="122" y="155"/>
      <point x="46" y="86" type="curve"/>
      <point x="107" y="-17" type="line"/>
      <point x="257" y="104"/>
      <point x="332" y="164"/>
      <point x="414" y="792" type="curve" smooth="yes"/>
      <point x="471" y="1255" type="line"/>
      <point x="887" y="1255" type="line"/>
      <point x="887" y="0" type="line"/>
      <point x="1014" y="0" type="line"/>
    </contour>
  </outline>
</glyph>
<glyph name="Yeru-cy" format="2">
  <advance width="1200"/>
  <unicode hex="042B"/>
  <anchor x="600" y="0" name="bottom"/>
  <anchor x="600" y="1374" name="top"/>
  <outline>
    <contour>
      <point x="217" y="1374" type="line"/>
      <point x="68" y="1374" type="line"/>
      <point x="68" y="0" type="line"/>
      <point x="378" y="0" type="line" smooth="yes"/>
      <point x="694" y="0"/>
      <point x="868" y="144"/>
      <point x="868" y="434" type="curve" smooth="yes"/>
      <point x="868" y="697"/>
      <point x="714" y="848"/>
      <point x="374" y="848" type="curve" smooth="yes"/>
      <point x="217" y="848" type="line"/>
    </contour>
    <contour>
      <point x="391" y="742" type="line" smooth="yes"/>
      <point x="603" y="742"/>
      <point x="713" y="637"/>
      <point x="713" y="432" type="curve" smooth="yes"/>
      <point x="713" y="203"/>
      <point x="601" y="113"/>
      <point x="399" y="113" type="curve" smooth="yes"/>
      <point x="217" y="113" type="line"/>
      <point x="217" y="742" type="line"/>
    </contour>
    <contour>
      <point x="1132" y="1374" type="line"/>
      <point x="983" y="1374" type="line"/>
      <point x="983" y="0" type="line"/>
      <point x="1132" y="0" type="line"/>
    </contour>
  </outline>
</glyph>
<glyph name="el-cy" format="2">
  <advance width="1200"/>
  <unicode hex="043B"/>
  <anchor x="600" y="0" name="bottom"/>
  <anchor x="1030" y="0" name="bottomright"/>
  <anchor x="600" y="1050" name="top"/>
  <outline>
    <contour>
      <point x="1010" y="1050" type="line"/>
      <point x="327" y="1050" type="line"/>
      <point x="293" y="609" type="line" smooth="yes"/>
      <point x="259" y="174"/>
      <point x="197" y="122"/>
      <point x="101" y="64" type="curve"/>
      <point x="154" y="-17" type="line"/>
      <point x="321" y="82"/>
      <point x="373" y="153"/>
      <point x="413" y="616" type="curve" smooth="yes"/>
      <point x="441" y="938" type="line"/>
      <point x="886" y="938" type="line"/>
      <point x="886" y="0" type="line"/>
      <point x="1010" y="0" type="line"/>
    </contour>
  </outline>
</glyph>
<glyph name="ef-cy" format="2">
  <advance width="1200"/>
  <unicode hex="0444"/>
  <anchor x="600" y="-386" name="bottom"/>
  <anchor x="600" y="1475" name="top"/>
  <outline>
    <contour>
      <point x="535" y="1492" type="line"/>
      <point x="535" y="965" type="line"/>
      <point x="475" y="1039"/>
      <point x="413" y="1069"/>
      <point x="345" y="1069" type="curve" smooth="yes"/>
      <point x="139" y="1069"/>
      <point x="65" y="850"/>
      <point x="65" y="527" type="curve" smooth="yes"/>
      <point x="65" y="201"/>
      <point x="169" y="-20"/>
      <point x="349" y="-20" type="curve" smooth="yes"/>
      <point x="407" y="-20"/>
      <point x="479" y="18"/>
      <point x="535" y="99" type="curve"/>
      <point x="535" y="-418" type="line"/>
      <point x="665" y="-398" type="line"/>
      <point x="665" y="98" type="line"/>
      <point x="721" y="18"/>
      <point x="786" y="-20"/>
      <point x="846" y="-20" type="curve" smooth="yes"/>
      <point x="1026" y="-20"/>
      <point x="1135" y="201"/>
      <point x="1135" y="527" type="curve" smooth="yes"/>
      <point x="1135" y="850"/>
      <point x="1066" y="1069"/>
      <point x="862" y="1069" type="curve" smooth="yes"/>
      <point x="793" y="1069"/>
      <point x="725" y="1035"/>
      <point x="665" y="960" type="curve"/>
      <point x="665" y="1472" type="line"/>
    </contour>
    <contour>
      <point x="367" y="961" type="curve" smooth="yes"/>
      <point x="437" y="961"/>
      <point x="474" y="925"/>
      <point x="535" y="857" type="curve"/>
      <point x="535" y="205" type="line"/>
      <point x="473" y="129"/>
      <point x="433" y="90"/>
      <point x="367" y="90" type="curve" smooth="yes"/>
      <point x="265" y="90"/>
      <point x="209" y="215"/>
      <point x="209" y="527" type="curve" smooth="yes"/>
      <point x="209" y="837"/>
      <point x="265" y="961"/>
    </contour>
    <contour>
      <point x="841" y="961" type="curve" smooth="yes"/>
      <point x="948" y="961"/>
      <point x="994" y="837"/>
      <point x="994" y="527" type="curve" smooth="yes"/>
      <point x="994" y="220"/>
      <point x="931" y="90"/>
      <point x="825" y="90" type="curve" smooth="yes"/>
      <point x="760" y="90"/>
      <point x="718" y="131"/>
      <point x="665" y="205" type="curve"/>
      <point x="665" y="854" type="line"/>
      <point x="723" y="925"/>
      <point x="769" y="961"/>
    </contour>
  </outline>
</glyph>
<glyph name="ereversed-cy" format="2">
  <advance width="1200"/>
  <unicode hex="044D"/>
  <anchor x="600" y="0" name="bottom"/>
  <anchor x="585" y="1050" name="top"/>
  <outline>
    <contour>
      <point x="557" y="1069" type="curve" smooth="yes"/>
      <point x="441" y="1069"/>
      <point x="294" y="1027"/>
      <point x="205" y="951" type="curve"/>
      <point x="269" y="861" type="line"/>
      <point x="359" y="932"/>
      <point x="460" y="961"/>
      <point x="563" y="961" type="curve" smooth="yes"/>
      <point x="747" y="961"/>
      <point x="866" y="844"/>
      <point x="887" y="596" type="curve"/>
      <point x="359" y="596" type="line"/>
      <point x="359" y="482" type="line"/>
      <point x="888" y="482" type="line"/>
      <point x="873" y="212"/>
      <point x="744" y="94"/>
      <point x="553" y="94" type="curve" smooth="yes"/>
      <point x="448" y="94"/>
      <point x="351" y="128"/>
      <point x="261" y="196" type="curve"/>
      <point x="197" y="101" type="line"/>
      <point x="292" y="24"/>
      <point x="431" y="-20"/>
      <point x="552" y="-20" type="curve" smooth="yes"/>
      <point x="860" y="-20"/>
      <point x="1019" y="205"/>
      <point x="1019" y="534" type="curve" smooth="yes"/>
      <point x="1019" y="861"/>
      <point x="876" y="1069"/>
    </contour>
  </outline>
</glyph>
<glyph name="ia-cy" format="2">
  <advance width="1200"/>
  <unicode hex="044F"/>
  <anchor x="600" y="0" name="bottom"/>
  <anchor x="600" y="1050" name="top"/>
  <outline>
    <contour>
      <point x="824" y="0" type="line"/>
      <point x="948" y="0" type="line"/>
      <point x="948" y="1050" type="line"/>
      <point x="572" y="1050" type="line"/>
      <point x="341" y="1050"/>
      <point x="184" y="953"/>
      <point x="184" y="743" type="curve" smooth="yes"/>
      <point x="184" y="599"/>
      <point x="251" y="493"/>
      <point x="405" y="436" type="curve"/>
      <point x="473" y="419" type="line"/>
      <point x="856" y="419" type="line"/>
      <point x="856" y="535" type="line"/>
      <point x="560" y="535" type="line" smooth="yes"/>
      <point x="389" y="535"/>
      <point x="319" y="591"/>
      <point x="319" y="738" type="curve" smooth="yes"/>
      <point x="319" y="879"/>
      <point x="410" y="934"/>
      <point x="568" y="934" type="curve" smooth="yes"/>
      <point x="824" y="934" type="line"/>
    </contour>
    <contour>
      <point x="124" y="0" type="line"/>
      <point x="272" y="0" type="line"/>
      <point x="521" y="447" type="line"/>
      <point x="389" y="478" type="line"/>
    </contour>
  </outline>
</glyph>
<glyph name="e-cy" format="2">
  <advance width="1200"/>
  <unicode hex="0454"/>
  <anchor x="600" y="0" name="bottom"/>
  <anchor x="600" y="1050" name="top"/>
  <outline>
    <contour>
      <point x="676" y="1069" type="curve" smooth="yes"/>
      <point x="366" y="1069"/>
      <point x="197" y="833"/>
      <point x="197" y="521" type="curve" smooth="yes"/>
      <point x="197" y="192"/>
      <point x="371" y="-20"/>
      <point x="681" y="-20" type="curve" smooth="yes"/>
      <point x="784" y="-20"/>
      <point x="922" y="20"/>
      <point x="1019" y="103" type="curve"/>
      <point x="958" y="189" type="line"/>
      <point x="861" y="123"/>
      <point x="776" y="94"/>
      <point x="667" y="94" type="curve" smooth="yes"/>
      <point x="485" y="94"/>
      <point x="343" y="211"/>
      <point x="327" y="482" type="curve"/>
      <point x="829" y="482" type="line"/>
      <point x="829" y="596" type="line"/>
      <point x="330" y="596" type="line"/>
      <point x="359" y="839"/>
      <point x="500" y="961"/>
      <point x="669" y="961" type="curve" smooth="yes"/>
      <point x="775" y="961"/>
      <point x="856" y="935"/>
      <point x="954" y="870" type="curve"/>
      <point x="1019" y="958" type="line"/>
      <point x="917" y="1035"/>
      <point x="801" y="1069"/>
    </contour>
  </outline>
</glyph>
<glyph name="Eiotified-cy" format="2">
  <advance width="1200"/>
  <unicode hex="0464"/>
  <anchor x="600" y="0" name="bottom"/>
  <anchor x="600" y="1374" name="top"/>
  <outline>
    <contour>
      <point x="226" y="1372" type="line"/>
      <point x="91" y="1372" type="line"/>
      <point x="91" y="0" type="line"/>
      <point x="226" y="0" type="line"/>
      <point x="226" y="650" type="line"/>
      <point x="456" y="650" type="line"/>
      <point x="456" y="773" type="line"/>
      <point x="226" y="773" type="line"/>
    </contour>
    <contour>
      <point x="1181" y="84" type="curve"/>
      <point x="1103" y="178" type="line"/>
      <point x="1049" y="145"/>
      <point x="991" y="104"/>
      <point x="877" y="104" type="curve" smooth="yes"/>
      <point x="684" y="104"/>
      <point x="539" y="259"/>
      <point x="517" y="647" type="curve"/>
      <point x="1023" y="647" type="line"/>
      <point x="1023" y="768" type="line"/>
      <point x="523" y="768" type="line"/>
      <point x="558" y="1147"/>
      <point x="701" y="1274"/>
      <point x="887" y="1274" type="curve" smooth="yes"/>
      <point x="979" y="1274"/>
      <point x="1022" y="1255"/>
      <point x="1085" y="1216" type="curve"/>
      <point x="1165" y="1306" type="line"/>
      <point x="1086" y="1363"/>
      <point x="1019" y="1393"/>
      <point x="883" y="1393" type="curve" smooth="yes"/>
      <point x="593" y="1393"/>
      <point x="381" y="1151"/>
      <point x="381" y="687" type="curve" smooth="yes"/>
      <point x="381" y="229"/>
      <point x="584" y="-20"/>
      <point x="877" y="-20" type="curve" smooth="yes"/>
      <point x="1034" y="-20"/>
      <point x="1111" y="27"/>
    </contour>
  </outline>
</glyph>
<glyph name="Yuslittleiotified-cy" format="2">
  <advance width="1200"/>
  <unicode hex="0468"/>
  <anchor x="600" y="0" name="bottom"/>
  <anchor x="600" y="1374" name="top"/>
  <outline>
    <contour>
      <point x="425" y="598" type="line"/>
      <point x="402" y="723" type="line"/>
      <point x="242" y="723" type="line"/>
      <point x="242" y="1374" type="line"/>
      <point x="95" y="1374" type="line"/>
      <point x="95" y="2" type="line"/>
      <point x="242" y="2" type="line"/>
      <point x="242" y="598" type="line"/>
    </contour>
    <contour>
      <point x="325" y="0" type="line"/>
      <point x="464" y="0" type="line"/>
      <point x="750" y="1244" type="line"/>
      <point x="1036" y="0" type="line"/>
      <point x="1183" y="0" type="line"/>
      <point x="838" y="1374" type="line"/>
      <point x="670" y="1374" type="line"/>
    </contour>
    <contour>
      <point x="685" y="1" type="line"/>
      <point x="815" y="1" type="line"/>
      <point x="815" y="641" type="line"/>
      <point x="685" y="641" type="line"/>
    </contour>
    <contour>
      <point x="418" y="598" type="line"/>
      <point x="1083" y="598" type="line"/>
      <point x="1042" y="723" type="line"/>
      <point x="459" y="723" type="line"/>
    </contour>
  </outline>
</glyph>
<glyph name="yusbig-cy" format="2">
  <advance width="1200"/>
  <unicode hex="046B"/>
  <anchor x="600" y="0" name="bottom"/>
  <anchor x="600" y="1050" name="top"/>
  <outline>
    <contour>
      <point x="53" y="0" type="line"/>
      <point x="180" y="0" type="line"/>
      <point x="367" y="483" type="line"/>
      <point x="531" y="483" type="line"/>
      <point x="531" y="0" type="line"/>
      <point x="668" y="0" type="line"/>
      <point x="668" y="483" type="line"/>
      <point x="834" y="483" type="line"/>
      <point x="1025" y="0" type="line"/>
      <point x="1146" y="0" type="line"/>
      <point x="925" y="596" type="line"/>
      <point x="277" y="596" type="line"/>
    </contour>
    <contour>
      <point x="525" y="508" type="line"/>
      <point x="662" y="508" type="line"/>
      <point x="972" y="975" type="line"/>
      <point x="972" y="1050" type="line"/>
      <point x="891" y="1050" type="line"/>
      <point x="599" y="596" type="line"/>
      <point x="305" y="1050" type="line"/>
      <point x="219" y="1050" type="line"/>
      <point x="219" y="975" type="line"/>
    </contour>
    <contour>
      <point x="295" y="937" type="line"/>
      <point x="912" y="937" type="line"/>
      <point x="912" y="1050" type="line"/>
      <point x="281" y="1050" type="line"/>
    </contour>
  </outline>
</glyph>
<glyph name="yusbigiotified-cy" format="2">
  <advance width="1200"/>
  <unicode hex="046D"/>
  <anchor x="600" y="0" name="bottom"/>
  <anchor x="600" y="1050" name="top"/>
  <outline>
    <contour>
      <point x="91" y="0" type="line"/>
      <point x="232" y="0" type="line"/>
      <point x="232" y="470" type="line"/>
      <point x="580" y="470" type="line"/>
      <point x="580" y="593" type="line"/>
      <point x="232" y="593" type="line"/>
      <point x="232" y="1050" type="line"/>
      <point x="91" y="1050" type="line"/>
    </contour>
    <contour>
      <point x="688" y="505" type="line"/>
      <point x="828" y="505" type="line"/>
      <point x="1097" y="975" type="line"/>
      <point x="1097" y="1050" type="line"/>
      <point x="1014" y="1050" type="line"/>
      <point x="764" y="593" type="line"/>
      <point x="508" y="1050" type="line"/>
      <point x="416" y="1050" type="line"/>
      <point x="416" y="975" type="line"/>
    </contour>
    <contour>
      <point x="507" y="939" type="line"/>
      <point x="1043" y="939" type="line"/>
      <point x="1049" y="1050" type="line"/>
      <point x="504" y="1050" type="line"/>
    </contour>
    <contour>
      <point x="310" y="0" type="line"/>
      <point x="446" y="0" type="line"/>
      <point x="619" y="470" type="line"/>
      <point x="693" y="470" type="line"/>
      <point x="693" y="0" type="line"/>
      <point x="828" y="0" type="line"/>
      <point x="828" y="470" type="line"/>
      <point x="904" y="470" type="line"/>
      <point x="1076" y="0" type="line"/>
      <point x="1211" y="0" type="line"/>
      <point x="992" y="593" type="line"/>
      <point x="537" y="593" type="line"/>
    </contour>
  </outline>
</glyph>
<glyph name="semisoftsign-cy" format="2">
  <advance width="1200"/>
  <unicode hex="048D"/>
  <anchor x="600" y="0" name="bottom"/>
  <anchor x="600" y="1050" name="top"/>
  <outline>
    <contour>
      <point x="347" y="0" type="line"/>
      <point x="579" y="0" type="line" smooth="yes"/>
      <point x="884" y="0"/>
      <point x="1048" y="127"/>
      <point x="1048" y="344" type="curve" smooth="yes"/>
      <point x="1048" y="537"/>
      <point x="907" y="660"/>
      <point x="639" y="660" type="curve" smooth="yes"/>
      <point x="439" y="660" type="line"/>
      <point x="439" y="551" type="line"/>
      <point x="635" y="551" type="line" smooth="yes"/>
      <point x="819" y="551"/>
      <point x="911" y="482"/>
      <point x="911" y="342" type="curve" smooth="yes"/>
      <point x="911" y="150"/>
      <point x="770" y="110"/>
      <point x="604" y="110" type="curve" smooth="yes"/>
      <point x="471" y="110" type="line"/>
      <point x="471" y="1050" type="line"/>
      <point x="347" y="1050" type="line"/>
    </contour>
    <contour>
      <point x="159" y="783" type="line"/>
      <point x="686" y="783" type="line"/>
      <point x="709" y="914" type="line"/>
      <point x="347" y="914" type="line"/>
      <point x="159" y="914" type="line"/>
    </contour>
  </outline>
</glyph>
<glyph name="Ertick-cy" format="2">
  <advance width="1200"/>
  <unicode hex="048E"/>
  <anchor x="600" y="0" name="bottom"/>
  <anchor x="600" y="1374" name="top"/>
  <outline>
    <contour>
      <point x="591" y="958" type="line"/>
      <point x="971" y="336" type="line"/>
      <point x="1129" y="336" type="line"/>
      <point x="749" y="958" type="line"/>
    </contour>
    <contour>
      <point x="953" y="951" type="curve" smooth="yes"/>
      <point x="953" y="723"/>
      <point x="835" y="637"/>
      <point x="593" y="637" type="curve" smooth="yes"/>
      <point x="391" y="637" type="line"/>
      <point x="391" y="1265" type="line"/>
      <point x="607" y="1265" type="line" smooth="yes"/>
      <point x="799" y="1265"/>
      <point x="953" y="1190"/>
    </contour>
    <contour>
      <point x="1102" y="954" type="curve" smooth="yes"/>
      <point x="1102" y="1244"/>
      <point x="903" y="1374"/>
      <point x="589" y="1374" type="curve" smooth="yes"/>
      <point x="263" y="1374" type="line"/>
      <point x="263" y="0" type="line"/>
      <point x="391" y="0" type="line"/>
      <point x="391" y="526" type="line"/>
      <point x="575" y="526" type="line" smooth="yes"/>
      <point x="889" y="526"/>
      <point x="1102" y="672"/>
    </contour>
  </outline>
</glyph>
<glyph name="Ghestroke-cy" format="2">
  <advance width="1200"/>
  <unicode hex="0492"/>
  <anchor x="428" y="0" name="bottom"/>
  <anchor x="493" y="0" name="bottomright"/>
  <anchor x="771" y="1374" name="top"/>
  <outline>
    <contour>
      <point x="815" y="866" type="line"/>
      <point x="363" y="866" type="line"/>
      <point x="149" y="866" type="line"/>
      <point x="149" y="752" type="line"/>
      <point x="491" y="752" type="line"/>
      <point x="815" y="752" type="line"/>
    </contour>
    <component base="Ge-cy" xOffset="64"/>
  </outline>
</glyph>
<glyph name="Kaverticalstroke-cy" format="2">
  <advance width="1200"/>
  <unicode hex="049C"/>
  <anchor x="600" y="0" name="bottom"/>
  <anchor x="600" y="1374" name="top"/>
  <outline>
    <contour>
      <point x="452" y="303" type="line"/>
      <point x="559" y="303" type="line"/>
      <point x="559" y="661" type="line"/>
      <point x="614" y="661" type="line"/>
      <point x="1016" y="0" type="line"/>
      <point x="1165" y="0" type="line"/>
      <point x="722" y="721" type="line"/>
      <point x="1127" y="1374" type="line"/>
      <point x="985" y="1374" type="line"/>
      <point x="617" y="789" type="line"/>
      <point x="559" y="789" type="line"/>
      <point x="559" y="1137" type="line"/>
      <point x="452" y="1137" type="line"/>
      <point x="452" y="789" type="line"/>
      <point x="347" y="789" type="line"/>
      <point x="347" y="1374" type="line"/>
      <point x="214" y="1374" type="line"/>
      <point x="214" y="0" type="line"/>
      <point x="347" y="0" type="line"/>
      <point x="347" y="661" type="line"/>
      <point x="452" y="661" type="line"/>
    </contour>
  </outline>
</glyph>
<glyph name="kastroke-cy" format="2">
  <advance width="1200"/>
  <unicode hex="049F"/>
  <outline>
    <contour>
      <point x="672" y="564" type="line"/>
      <point x="1045" y="1050" type="line"/>
      <point x="891" y="1050" type="line"/>
      <point x="565" y="618" type="line"/>
      <point x="375" y="618" type="line"/>
      <point x="375" y="1492" type="line"/>
      <point x="251" y="1475" type="line"/>
      <point x="251" y="0" type="line"/>
      <point x="375" y="0" type="line"/>
      <point x="375" y="504" type="line"/>
      <point x="563" y="504" type="line"/>
      <point x="943" y="0" type="line"/>
      <point x="1108" y="0" type="line"/>
    </contour>
    <contour>
      <point x="250" y="1255" type="line"/>
      <point x="93" y="1255" type="line"/>
      <point x="93" y="1136" type="line"/>
      <point x="374" y="1136" type="line"/>
      <point x="688" y="1136" type="line"/>
      <point x="688" y="1255" type="line"/>
    </contour>
  </outline>
</glyph>
<glyph name="Haabkhasian-cy" format="2">
  <advance width="1200"/>
  <unicode hex="04A8"/>
  <anchor x="600" y="-386" name="bottom"/>
  <anchor x="600" y="1374" name="top"/>
  <outline>
    <contour>
      <point x="631" y="-17" type="curve"/>
      <point x="641" y="112" type="line"/>
      <point x="388" y="112"/>
      <point x="221" y="277"/>
      <point x="221" y="690" type="curve" smooth="yes"/>
      <point x="221" y="1134"/>
      <point x="421" y="1273"/>
      <point x="614" y="1273" type="curve" smooth="yes"/>
      <point x="713" y="1273"/>
      <point x="802" y="1244"/>
      <point x="890" y="1172" type="curve"/>
      <point x="963" y="1268" type="line"/>
      <point x="858" y="1350"/>
      <point x="768" y="1391"/>
      <point x="612" y="1391" type="curve" smooth="yes"/>
      <point x="343" y="1391"/>
      <point x="79" y="1152"/>
      <point x="79" y="690" type="curve" smooth="yes"/>
      <point x="79" y="230"/>
      <point x="296" y="-17"/>
    </contour>
    <contour>
      <point x="942" y="-220" type="curve"/>
      <point x="1042" y="-143" type="line"/>
      <point x="870" y="89"/>
      <point x="668" y="223"/>
      <point x="668" y="496" type="curve" smooth="yes"/>
      <point x="668" y="642"/>
      <point x="725" y="737"/>
      <point x="841" y="737" type="curve" smooth="yes"/>
      <point x="951" y="737"/>
      <point x="1004" y="665"/>
      <point x="1004" y="509" type="curve" smooth="yes"/>
      <point x="1004" y="268"/>
      <point x="875" y="112"/>
      <point x="641" y="112" type="curve"/>
      <point x="631" y="-17" type="line"/>
      <point x="983" y="-17"/>
      <point x="1164" y="262"/>
      <point x="1164" y="511" type="curve" smooth="yes"/>
      <point x="1164" y="703"/>
      <point x="1062" y="861"/>
      <point x="840" y="861" type="curve" smooth="yes"/>
      <point x="649" y="861"/>
      <point x="511" y="695"/>
      <point x="511" y="496" type="curve" smooth="yes"/>
      <point x="511" y="245"/>
      <point x="744" y="31"/>
    </contour>
  </outline>
</glyph>
<glyph name="Eltail-cy" format="2">
  <advance width="1200"/>
  <unicode hex="04C5"/>
  <outline>
    <contour>
      <point x="964" y="1374" type="line"/>
      <point x="370" y="1374" type="line"/>
      <point x="281" y="719" type="line" smooth="yes"/>
      <point x="207" y="203"/>
      <point x="132" y="155"/>
      <point x="56" y="86" type="curve"/>
      <point x="117" y="-17" type="line"/>
      <point x="267" y="104"/>
      <point x="341" y="164"/>
      <point x="424" y="792" type="curve" smooth="yes"/>
      <point x="481" y="1255" type="line"/>
      <point x="837" y="1255" type="line"/>
      <point x="837" y="0" type="line"/>
      <point x="964" y="0" type="line"/>
    </contour>
    <component base="descTail-cy.case" xOffset="329"/>
  </outline>
</glyph>
<glyph name="chekhakassian-cy" format="2">
  <advance width="1200"/>
  <unicode hex="04CC"/>
  <anchor x="600" y="-386" name="bottom"/>
  <anchor x="600" y="1050" name="top"/>
  <outline>
    <contour>
      <point x="956" y="1050" type="line"/>
      <point x="832" y="1050" type="line"/>
      <point x="832" y="576" type="line"/>
      <point x="764" y="493"/>
      <point x="625" y="442"/>
      <point x="513" y="442" type="curve" smooth="yes"/>
      <point x="376" y="442"/>
      <point x="316" y="505"/>
      <point x="316" y="657" type="curve" smooth="yes"/>
      <point x="316" y="1050" type="line"/>
      <point x="192" y="1050" type="line"/>
      <point x="192" y="643" type="line" smooth="yes"/>
      <point x="192" y="449"/>
      <point x="293" y="339"/>
      <point x="493" y="339" type="curve" smooth="yes"/>
      <point x="625" y="339"/>
      <point x="752" y="388"/>
      <point x="832" y="463" type="curve"/>
      <point x="832" y="0" type="line"/>
      <point x="956" y="0" type="line"/>
    </contour>
    <component base="descStraight-cy" xScale="-1" xOffset="1363"/>
  </outline>
</glyph>
<glyph name="obarred-cy" format="2">
  <advance width="1200"/>
  <unicode hex="04E9"/>
  <anchor x="602" y="1050" name="top"/>
  <outline>
    <contour>
      <point x="603" y="1069" type="curve" smooth="yes"/>
      <point x="314" y="1069"/>
      <point x="166" y="844"/>
      <point x="166" y="523" type="curve" smooth="yes"/>
      <point x="166" y="200"/>
      <point x="311" y="-20"/>
      <point x="600" y="-20" type="curve" smooth="yes"/>
      <point x="886" y="-20"/>
      <point x="1034" y="213"/>
      <point x="1034" y="525" type="curve" smooth="yes"/>
      <point x="1034" y="857"/>
      <point x="891" y="1069"/>
    </contour>
    <contour>
      <point x="888" y="475" type="line"/>
      <point x="872" y="212"/>
      <point x="777" y="92"/>
      <point x="600" y="92" type="curve" smooth="yes"/>
      <point x="422" y="92"/>
      <point x="328" y="212"/>
      <point x="312" y="475" type="curve"/>
    </contour>
    <contour>
      <point x="603" y="957" type="curve" smooth="yes"/>
      <point x="782" y="957"/>
      <point x="879" y="831"/>
      <point x="889" y="597" type="curve"/>
      <point x="312" y="597" type="line"/>
      <point x="322" y="833"/>
      <point x="421" y="957"/>
    </contour>
  </outline>
</glyph>
<glyph name="hastroke-cy" format="2">
  <advance width="1200"/>
  <unicode hex="04FF"/>
  <anchor x="600" y="0" name="bottom"/>
  <anchor x="600" y="1050" name="top"/>
  <outline>
    <contour>
      <point x="278" y="0" type="line"/>
      <point x="602" y="488" type="line"/>
      <point x="908" y="0" type="line"/>
      <point x="1069" y="0" type="line"/>
      <point x="674" y="561" type="line"/>
      <point x="1023" y="1050" type="line"/>
      <point x="872" y="1050" type="line"/>
      <point x="602" y="626" type="line"/>
      <point x="338" y="1050" type="line"/>
      <point x="183" y="1050" type="line"/>
      <point x="527" y="555" type="line"/>
      <point x="131" y="0" type="line"/>
    </contour>
    <component base="hyphen" xScale="1.05" yScale="0.85" xOffset="-33" yOffset="29"/>
  </outline>
</glyph>
<glyph name="komizje-cy" format="2">
  <advance width="1200"/>
  <unicode hex="0505"/>
  <anchor x="600" y="0" name="bottom"/>
  <anchor x="600" y="1050" name="top"/>
  <outline>
    <contour>
      <point x="1140" y="752" type="curve"/>
      <point x="1007" y="752" type="line"/>
      <point x="1012" y="666"/>
      <point x="1016" y="594"/>
      <point x="1016" y="498" type="curve" smooth="yes"/>
      <point x="1016" y="174"/>
      <point x="907" y="88"/>
      <point x="789" y="88" type="curve" smooth="yes"/>
      <point x="698" y="88"/>
      <point x="628" y="119"/>
      <point x="555" y="248" type="curve" smooth="yes"/>
      <point x="443" y="449" type="line"/>
      <point x="613" y="497"/>
      <point x="697" y="594"/>
      <point x="697" y="740" type="curve" smooth="yes"/>
      <point x="697" y="946"/>
      <point x="544" y="1050"/>
      <point x="280" y="1050" type="curve" smooth="yes"/>
      <point x="25" y="1050" type="line"/>
      <point x="26" y="946" type="line"/>
      <point x="275" y="946" type="line" smooth="yes"/>
      <point x="471" y="946"/>
      <point x="565" y="887"/>
      <point x="565" y="743" type="curve" smooth="yes"/>
      <point x="565" y="587"/>
      <point x="467" y="533"/>
      <point x="316" y="533" type="curve" smooth="yes"/>
      <point x="100" y="533" type="line"/>
      <point x="100" y="432" type="line"/>
      <point x="323" y="432" type="line"/>
      <point x="432" y="235" type="line" smooth="yes"/>
      <point x="524" y="71"/>
      <point x="609" y="-25"/>
      <point x="788" y="-25" type="curve" smooth="yes"/>
      <point x="982" y="-25"/>
      <point x="1149" y="125"/>
      <point x="1149" y="503" type="curve" smooth="yes"/>
      <point x="1149" y="594"/>
      <point x="1145" y="674"/>
    </contour>
  </outline>
</glyph>
<glyph name="komilje-cy" format="2">
  <advance width="1200"/>
  <unicode hex="0509"/>
  <anchor x="600" y="0" name="bottom"/>
  <anchor x="600" y="1050" name="top"/>
  <outline>
    <contour>
      <point x="77" y="-17" type="line"/>
      <point x="230" y="91"/>
      <point x="270" y="179"/>
      <point x="316" y="668" type="curve" smooth="yes"/>
      <point x="341" y="934" type="line"/>
      <point x="565" y="934" type="line"/>
      <point x="565" y="563" type="line"/>
      <point x="706" y="563" type="line"/>
      <point x="706" y="1050" type="line"/>
      <point x="210" y="1050" type="line"/>
      <point x="180" y="653" type="line" smooth="yes"/>
      <point x="146" y="197"/>
      <point x="115" y="147"/>
      <point x="25" y="75" type="curve"/>
    </contour>
    <contour>
      <point x="840" y="-25" type="curve" smooth="yes"/>
      <point x="1021" y="-25"/>
      <point x="1175" y="125"/>
      <point x="1175" y="503" type="curve" smooth="yes"/>
      <point x="1175" y="594"/>
      <point x="1171" y="674"/>
      <point x="1166" y="752" type="curve"/>
      <point x="1022" y="752" type="line"/>
      <point x="1027" y="666"/>
      <point x="1031" y="594"/>
      <point x="1031" y="498" type="curve" smooth="yes"/>
      <point x="1031" y="179"/>
      <point x="941" y="94"/>
      <point x="841" y="94" type="curve" smooth="yes"/>
      <point x="748" y="94"/>
      <point x="706" y="182"/>
      <point x="706" y="285" type="curve" smooth="yes"/>
      <point x="706" y="589" type="line"/>
      <point x="565" y="630" type="line"/>
      <point x="565" y="294" type="line" smooth="yes"/>
      <point x="565" y="70"/>
      <point x="698" y="-25"/>
    </contour>
  </outline>
</glyph>
<glyph name="Kominje-cy" format="2">
  <advance width="1200"/>
  <unicode hex="050A"/>
  <anchor x="600" y="0" name="bottom"/>
  <anchor x="600" y="1374" name="top"/>
  <outline>
    <contour>
      <point x="592" y="583" type="line"/>
      <point x="736" y="583" type="line"/>
      <point x="736" y="1374" type="line"/>
      <point x="592" y="1374" type="line"/>
      <point x="592" y="794" type="line"/>
      <point x="253" y="794" type="line"/>
      <point x="253" y="1374" type="line"/>
      <point x="109" y="1374" type="line"/>
      <point x="109" y="0" type="line"/>
      <point x="253" y="0" type="line"/>
      <point x="253" y="676" type="line"/>
      <point x="592" y="676" type="line"/>
    </contour>
    <contour>
      <point x="862" y="-25" type="curve" smooth="yes"/>
      <point x="1025" y="-25"/>
      <point x="1178" y="125"/>
      <point x="1178" y="504" type="curve" smooth="yes"/>
      <point x="1178" y="594"/>
      <point x="1174" y="674"/>
      <point x="1169" y="752" type="curve"/>
      <point x="1024" y="752" type="line"/>
      <point x="1030" y="666"/>
      <point x="1034" y="594"/>
      <point x="1034" y="499" type="curve" smooth="yes"/>
      <point x="1034" y="178"/>
      <point x="950" y="93"/>
      <point x="863" y="93" type="curve" smooth="yes"/>
      <point x="778" y="93"/>
      <point x="736" y="173"/>
      <point x="736" y="318" type="curve" smooth="yes"/>
      <point x="736" y="1045" type="line"/>
      <point x="592" y="1045" type="line"/>
      <point x="592" y="321" type="line" smooth="yes"/>
      <point x="592" y="84"/>
      <point x="706" y="-25"/>
    </contour>
  </outline>
</glyph>
<glyph name="komisje-cy" format="2">
  <advance width="1200"/>
  <unicode hex="050D"/>
  <outline>
    <contour>
      <point x="633" y="1069" type="curve" smooth="yes"/>
      <point x="379" y="1069"/>
      <point x="160" y="864"/>
      <point x="160" y="537" type="curve" smooth="yes"/>
      <point x="160" y="170"/>
      <point x="329" y="-16"/>
      <point x="606" y="-16" type="curve" smooth="yes"/>
      <point x="753" y="-16"/>
      <point x="884" y="32"/>
      <point x="973" y="84" type="curve"/>
      <point x="973" y="583" type="line"/>
      <point x="602" y="583" type="line"/>
      <point x="615" y="470" type="line"/>
      <point x="846" y="470" type="line"/>
      <point x="846" y="144" type="line"/>
      <point x="768" y="106"/>
      <point x="692" y="92"/>
      <point x="609" y="92" type="curve" smooth="yes"/>
      <point x="414" y="92"/>
      <point x="297" y="210"/>
      <point x="297" y="538" type="curve" smooth="yes"/>
      <point x="297" y="836"/>
      <point x="469" y="954"/>
      <point x="627" y="954" type="curve" smooth="yes"/>
      <point x="741" y="954"/>
      <point x="817" y="925"/>
      <point x="899" y="860" type="curve"/>
      <point x="983" y="948" type="line"/>
      <point x="883" y="1024"/>
      <point x="789" y="1069"/>
    </contour>
  </outline>
</glyph>
<glyph name="Lha-cy" format="2">
  <advance width="1200"/>
  <unicode hex="0514"/>
  <anchor x="600" y="0" name="bottom"/>
  <anchor x="600" y="1374" name="top"/>
  <outline>
    <contour>
      <point x="412" y="1374" type="line"/>
      <point x="717" y="736" type="line"/>
      <point x="379" y="0" type="line"/>
      <point x="522" y="0" type="line"/>
      <point x="787" y="632" type="line"/>
      <point x="1065" y="0" type="line"/>
      <point x="1218" y="0" type="line"/>
      <point x="882" y="733" type="line"/>
      <point x="1175" y="1374" type="line"/>
      <point x="1035" y="1374" type="line"/>
      <point x="803" y="832" type="line"/>
      <point x="564" y="1374" type="line"/>
    </contour>
    <contour>
      <point x="219" y="1374" type="line"/>
      <point x="165" y="737" type="line" smooth="yes"/>
      <point x="120" y="209"/>
      <point x="84" y="156"/>
      <point x="22" y="84" type="curve"/>
      <point x="117" y="-17" type="line"/>
      <point x="214" y="98"/>
      <point x="276" y="161"/>
      <point x="319" y="712" type="curve" smooth="yes"/>
      <point x="359" y="1239" type="line"/>
      <point x="515" y="1239" type="line"/>
      <point x="533" y="1374" type="line"/>
    </contour>
  </outline>
</glyph>
<glyph name="Dzzhe-cy" format="2">
  <advance width="1200"/>
  <unicode hex="052A"/>
  <anchor x="600" y="-386" name="bottom"/>
  <anchor x="600" y="1374" name="top"/>
  <outline>
    <contour>
      <point x="-24" y="-278" type="line"/>
      <point x="94" y="-278" type="line"/>
      <point x="125" y="0" type="line"/>
      <point x="173" y="0" type="line"/>
      <point x="197" y="110" type="line"/>
      <point x="-24" y="110" type="line"/>
    </contour>
    <contour>
      <point x="619" y="-278" type="line"/>
      <point x="741" y="-278" type="line"/>
      <point x="741" y="110" type="line"/>
      <point x="519" y="110" type="line"/>
      <point x="539" y="0" type="line"/>
      <point x="587" y="0" type="line"/>
    </contour>
    <contour>
      <point x="593" y="0" type="line"/>
      <point x="764" y="0" type="line"/>
      <point x="764" y="110" type="line"/>
      <point x="568" y="110" type="line"/>
    </contour>
    <contour>
      <point x="37" y="0" type="line"/>
      <point x="608" y="0" type="line"/>
      <point x="608" y="1374" type="line"/>
      <point x="217" y="1374" type="line"/>
      <point x="182" y="846" type="line" smooth="yes"/>
      <point x="147" y="365"/>
      <point x="91" y="245"/>
      <point x="45" y="110" type="curve"/>
    </contour>
    <contour>
      <point x="177" y="110" type="line"/>
      <point x="256" y="236"/>
      <point x="304" y="402"/>
      <point x="328" y="840" type="curve" smooth="yes"/>
      <point x="351" y="1252" type="line"/>
      <point x="475" y="1252" type="line"/>
      <point x="475" y="110" type="line"/>
    </contour>
    <contour>
      <point x="605" y="649" type="line"/>
      <point x="716" y="649" type="line"/>
      <point x="716" y="0" type="line"/>
      <point x="852" y="0" type="line"/>
      <point x="852" y="649" type="line"/>
      <point x="905" y="649" type="line"/>
      <point x="1066" y="0" type="line"/>
      <point x="1220" y="0" type="line"/>
      <point x="1017" y="715" type="line"/>
      <point x="1174" y="1374" type="line"/>
      <point x="1043" y="1374" type="line"/>
      <point x="909" y="787" type="line"/>
      <point x="852" y="787" type="line"/>
      <point x="852" y="1374" type="line"/>
      <point x="716" y="1374" type="line"/>
      <point x="716" y="787" type="line"/>
      <point x="605" y="787" type="line"/>
    </contour>
  </outline>
</glyph>
<glyph name="dche-cy" format="2">
  <advance width="1200"/>
  <unicode hex="052D"/>
  <anchor x="600" y="-386" name="bottom"/>
  <anchor x="600" y="1050" name="top"/>
  <outline>
    <contour>
      <point x="327" y="118" type="line"/>
      <point x="425" y="185"/>
      <point x="513" y="332"/>
      <point x="538" y="665" type="curve" smooth="yes"/>
      <point x="557" y="920" type="line"/>
      <point x="824" y="920" type="line"/>
      <point x="824" y="118" type="line"/>
    </contour>
    <contour>
      <point x="508" y="534" type="curve" smooth="yes"/>
      <point x="834" y="534" type="line"/>
      <point x="834" y="663" type="line"/>
      <point x="508" y="663" type="line" smooth="yes"/>
      <point x="360" y="663"/>
      <point x="273" y="717"/>
      <point x="273" y="902" type="curve" smooth="yes"/>
      <point x="273" y="1050" type="line"/>
      <point x="126" y="1050" type="line"/>
      <point x="126" y="894" type="line" smooth="yes"/>
      <point x="126" y="636"/>
      <point x="242" y="534"/>
    </contour>
    <contour>
      <point x="421" y="1050" type="line"/>
      <point x="393" y="636" type="line" smooth="yes"/>
      <point x="367" y="251"/>
      <point x="241" y="153"/>
      <point x="160" y="118" type="curve"/>
      <point x="160" y="0" type="line"/>
      <point x="977" y="0" type="line"/>
      <point x="977" y="1050" type="line"/>
    </contour>
    <contour>
      <point x="89" y="-278" type="line"/>
      <point x="208" y="-278" type="line"/>
      <point x="233" y="0" type="line"/>
      <point x="302" y="0" type="line"/>
      <point x="274" y="118" type="line"/>
      <point x="89" y="118" type="line"/>
    </contour>
    <contour>
      <point x="1002" y="-278" type="line"/>
      <point x="1121" y="-278" type="line"/>
      <point x="1121" y="118" type="line"/>
      <point x="931" y="118" type="line"/>
      <point x="908" y="0" type="line"/>
      <point x="976" y="0" type="line"/>
    </contour>
  </outline>
</glyph>
<glyph name="dasiaoxia" format="2">
  <advance width="1200"/>
  <unicode hex="1FDE"/>
  <anchor x="570" y="1050" name="_top"/>
  <anchor x="846" y="1565" name="_topleft"/>
  <anchor x="273" y="1572" name="top"/>
  <outline>
    <contour>
      <point x="701" y="1559" type="line"/>
      <point x="602" y="1174" type="line"/>
      <point x="697" y="1145" type="line"/>
      <point x="822" y="1529" type="line"/>
    </contour>
    <component base="dasia" xOffset="-152" yOffset="-16"/>
  </outline>
</glyph>
<glyph name="dasiaperispomeni" format="2">
  <advance width="1200"/>
  <unicode hex="1FDF"/>
  <anchor x="591" y="1050" name="_top"/>
  <anchor x="910" y="1651" name="_topleft"/>
  <anchor x="595" y="1667" name="top"/>
  <outline>
    <contour>
      <point x="677" y="1153" type="line"/>
      <point x="633" y="1277" type="line"/>
      <point x="671" y="1302"/>
      <point x="688" y="1329"/>
      <point x="688" y="1366" type="curve" smooth="yes"/>
      <point x="688" y="1420"/>
      <point x="645" y="1459"/>
      <point x="591" y="1459" type="curve" smooth="yes"/>
      <point x="537" y="1459"/>
      <point x="497" y="1419"/>
      <point x="497" y="1366" type="curve" smooth="yes"/>
      <point x="497" y="1340"/>
      <point x="504" y="1309"/>
      <point x="554" y="1218" type="curve" smooth="yes"/>
      <point x="590" y="1153" type="line"/>
    </contour>
    <component base="perispomeni" xOffset="-3" yOffset="135"/>
  </outline>
</glyph>
<glyph name="dasia" format="2">
  <advance width="1200"/>
  <unicode hex="1FFE"/>
  <anchor x="670" y="1050" name="_top"/>
  <anchor x="782" y="1557" name="_topleft"/>
  <anchor x="595" y="1572" name="top"/>
  <outline>
    <contour>
      <point x="592" y="1591" type="curve" smooth="yes"/>
      <point x="540" y="1591"/>
      <point x="498" y="1551"/>
      <point x="498" y="1498" type="curve" smooth="yes"/>
      <point x="498" y="1467"/>
      <point x="504" y="1447"/>
      <point x="523" y="1404" type="curve" smooth="yes"/>
      <point x="623" y="1184" type="line"/>
      <point x="709" y="1184" type="line"/>
      <point x="649" y="1420" type="line"/>
      <point x="672" y="1438"/>
      <point x="686" y="1469"/>
      <point x="686" y="1498" type="curve" smooth="yes"/>
      <point x="686" y="1552"/>
      <point x="644" y="1591"/>
    </contour>
  </outline>
</glyph>
<glyph name="quoteright" format="2">
  <advance width="1200"/>
  <unicode hex="2019"/>
  <outline>
    <contour>
      <point x="475" y="1442" type="curve" smooth="yes"/>
      <point x="475" y="1403"/>
      <point x="493" y="1364"/>
      <point x="521" y="1345" type="curve"/>
      <point x="441" y="974" type="line"/>
      <point x="557" y="974" type="line"/>
      <point x="728" y="1333" type="line" smooth="yes"/>
      <point x="753" y="1389"/>
      <point x="757" y="1410"/>
      <point x="757" y="1442" type="curve" smooth="yes"/>
      <point x="757" y="1518"/>
      <point x="692" y="1578"/>
      <point x="616" y="1578" type="curve" smooth="yes"/>
      <point x="542" y="1578"/>
      <point x="475" y="1518"/>
    </contour>
  </outline>
</glyph>
<glyph name="quotedblright" format="2">
  <advance width="1200"/>
  <unicode hex="201D"/>
  <outline>
    <contour>
      <point x="263" y="1434" type="curve" smooth="yes"/>
      <point x="263" y="1396"/>
      <point x="281" y="1357"/>
      <point x="306" y="1337" type="curve"/>
      <point x="229" y="966" type="line"/>
      <point x="345" y="966" type="line"/>
      <point x="513" y="1326" type="line" smooth="yes"/>
      <point x="539" y="1381"/>
      <point x="546" y="1403"/>
      <point x="546" y="1434" type="curve" smooth="yes"/>
      <point x="546" y="1510"/>
      <point x="480" y="1571"/>
      <point x="404" y="1571" type="curve" smooth="yes"/>
      <point x="329" y="1571"/>
      <point x="263" y="1510"/>
    </contour>
    <contour>
      <point x="685" y="1434" type="curve" smooth="yes"/>
      <point x="685" y="1396"/>
      <point x="703" y="1357"/>
      <point x="731" y="1337" type="curve"/>
      <point x="652" y="966" type="line"/>
      <point x="768" y="966" type="line"/>
      <point x="939" y="1326" type="line" smooth="yes"/>
      <point x="964" y="1381"/>
      <point x="968" y="1403"/>
      <point x="968" y="1434" type="curve" smooth="yes"/>
      <point x="968" y="1510"/>
      <point x="903" y="1571"/>
      <point x="826" y="1571" type="curve" smooth="yes"/>
      <point x="752" y="1571"/>
      <point x="685" y="1510"/>
    </contour>
  </outline>
</glyph>
<glyph name="daggerdbl" format="2">
  <advance width="1200"/>
  <unicode hex="2021"/>
  <outline>
    <contour>
      <point x="661" y="1352" type="line"/>
      <point x="539" y="1352" type="line"/>
      <point x="539" y="1011" type="line"/>
      <point x="198" y="1011" type="line"/>
      <point x="198" y="903" type="line"/>
      <point x="539" y="903" type="line"/>
      <point x="539" y="438" type="line"/>
      <point x="198" y="438" type="line"/>
      <point x="198" y="331" type="line"/>
      <point x="539" y="331" type="line"/>
      <point x="539" y="0" type="line"/>
      <point x="661" y="0" type="line"/>
      <point x="661" y="331" type="line"/>
      <point x="1002" y="331" type="line"/>
      <point x="1002" y="438" type="line"/>
      <point x="661" y="438" type="line"/>
      <point x="661" y="903" type="line"/>
      <point x="1002" y="903" type="line"/>
      <point x="1002" y="1011" type="line"/>
      <point x="661" y="1011" type="line"/>
    </contour>
  </outline>
</glyph>
<glyph name="fraction" format="2">
  <advance width="1200"/>
  <unicode hex="2044"/>
  <outline>
    <contour>
      <point x="-506" y="373" type="line"/>
      <point x="562" y="885" type="line"/>
      <point x="508" y="979" type="line"/>
      <point x="-562" y="467" type="line"/>
    </contour>
  </outline>
</glyph>
<glyph name="rupeeIndian" format="2">
  <advance width="1200"/>
  <unicode hex="20B9"/>
  <outline>
    <contour>
      <point x="203" y="573" type="line"/>
      <point x="388" y="573" type="line"/>
      <point x="714" y="593"/>
      <point x="889" y="710"/>
      <point x="889" y="1000" type="curve" smooth="yes"/>
      <point x="889" y="1174"/>
      <point x="805" y="1277"/>
      <point x="631" y="1302" type="curve"/>
      <point x="398" y="1374" type="line"/>
      <point x="203" y="1374" type="line"/>
      <point x="120" y="1262" type="line"/>
      <point x="390" y="1262" type="line" smooth="yes"/>
      <point x="653" y="1262"/>
      <point x="740" y="1168"/>
      <point x="740" y="979" type="curve" smooth="yes"/>
      <point x="740" y="776"/>
      <point x="632" y="700"/>
      <point x="422" y="700" type="curve" smooth="yes"/>
      <point x="203" y="700" type="line"/>
    </contour>
    <contour>
      <point x="203" y="984" type="line"/>
      <point x="1062" y="984" type="line"/>
      <point x="1062" y="1086" type="line"/>
      <point x="203" y="1086" type="line"/>
    </contour>
    <contour>
      <point x="203" y="1282" type="line"/>
      <point x="547" y="1280" type="line"/>
      <point x="552" y="1274" type="line"/>
      <point x="1062" y="1274" type="line"/>
      <point x="1062" y="1374" type="line"/>
      <point x="203" y="1374" type="line"/>
    </contour>
    <contour>
      <point x="536" y="607" type="line"/>
      <point x="396" y="597" type="line"/>
      <point x="795" y="0" type="line"/>
      <point x="959" y="0" type="line"/>
    </contour>
  </outline>
</glyph>
<glyph name="liraTurkish" format="2">
  <advance width="1200"/>
  <unicode hex="20BA"/>
  <outline>
    <contour>
      <point x="308" y="0" type="line"/>
      <point x="562" y="0" type="line" smooth="yes"/>
      <point x="893" y="0"/>
      <point x="1046" y="152"/>
      <point x="1115" y="396" type="curve"/>
      <point x="1000" y="417" type="line"/>
      <point x="903" y="183"/>
      <point x="776" y="120"/>
      <point x="563" y="120" type="curve" smooth="yes"/>
      <point x="438" y="120" type="line"/>
      <point x="436" y="1374" type="line"/>
      <point x="308" y="1374" type="line"/>
    </contour>
    <contour>
      <point x="186" y="384" type="line"/>
      <point x="824" y="679" type="line"/>
      <point x="781" y="776" type="line"/>
      <point x="145" y="478" type="line"/>
    </contour>
    <contour>
      <point x="191" y="656" type="line"/>
      <point x="827" y="954" type="line"/>
      <point x="783" y="1051" type="line"/>
      <point x="145" y="756" type="line"/>
    </contour>
  </outline>
</glyph>
<glyph name="arrowdown" format="2">
  <advance width="1200"/>
  <unicode hex="2193"/>
  <outline>
    <contour>
      <point x="664" y="1244" type="line"/>
      <point x="536" y="1244" type="line"/>
      <point x="536" y="95" type="line"/>
      <point x="503" y="156"/>
      <point x="464" y="191"/>
      <point x="429" y="218" type="curve" smooth="yes"/>
      <point x="55" y="558" type="line"/>
      <point x="-22" y="469" type="line"/>
      <point x="600" y="-78" type="line"/>
      <point x="1222" y="469" type="line"/>
      <point x="1145" y="558" type="line"/>
      <point x="770" y="217" type="line" smooth="yes"/>
      <point x="735" y="191"/>
      <point x="694" y="153"/>
      <point x="664" y="96" type="curve"/>
    </contour>
  </outline>
</glyph>
<glyph name="arrowboth" format="2">
  <advance width="1200"/>
  <unicode hex="2194"/>
  <outline>
    <contour>
      <point x="1318" y="658" type="line"/>
      <point x="849" y="1188" type="line"/>
      <point x="748" y="1103" type="line"/>
      <point x="1021" y="802" type="line" smooth="yes"/>
      <point x="1068" y="750"/>
      <point x="1067" y="747"/>
      <point x="1115" y="716" type="curve"/>
      <point x="85" y="716" type="line"/>
      <point x="133" y="747"/>
      <point x="132" y="750"/>
      <point x="179" y="802" type="curve" smooth="yes"/>
      <point x="458" y="1103" type="line"/>
      <point x="357" y="1188" type="line"/>
      <point x="-118" y="658" type="line"/>
      <point x="354" y="128" type="line"/>
      <point x="454" y="213" type="line"/>
      <point x="179" y="514" type="line" smooth="yes"/>
      <point x="152" y="543"/>
      <point x="122" y="576"/>
      <point x="83" y="600" type="curve"/>
      <point x="1117" y="600" type="line"/>
      <point x="1078" y="576"/>
      <point x="1044" y="543"/>
      <point x="1021" y="514" type="curve" smooth="yes"/>
      <point x="754" y="213" type="line"/>
      <point x="854" y="128" type="line"/>
    </contour>
  </outline>
</glyph>
<glyph name="arrowdownright" format="2">
  <advance width="1200"/>
  <unicode hex="2198"/>
  <outline>
    <contour>
      <point x="183" y="1120" type="line"/>
      <point x="95" y="1033" type="line"/>
      <point x="876" y="237" type="line"/>
      <point x="785" y="253"/>
      <point x="745" y="252"/>
      <point x="668" y="248" type="curve" smooth="yes"/>
      <point x="270" y="227" type="line"/>
      <point x="276" y="101" type="line"/>
      <point x="1061" y="145" type="line"/>
      <point x="1105" y="953" type="line"/>
      <point x="980" y="959" type="line"/>
      <point x="952" y="508" type="line" smooth="yes"/>
      <point x="949" y="467"/>
      <point x="948" y="402"/>
      <point x="964" y="322" type="curve"/>
    </contour>
  </outline>
</glyph>
<glyph name="capslock" format="2">
  <advance width="1200"/>
  <unicode hex="21EA"/>
  <outline>
    <contour>
      <point x="600" y="1664" type="line"/>
      <point x="0" y="1068" type="line"/>
      <point x="338" y="1068" type="line"/>
      <point x="338" y="510" type="line"/>
      <point x="862" y="510" type="line"/>
      <point x="862" y="1068" type="line"/>
      <point x="1200" y="1068" type="line"/>
    </contour>
    <contour>
      <point x="862" y="310" type="line"/>
      <point x="338" y="310" type="line"/>
      <point x="338" y="76" type="line" smooth="yes"/>
      <point x="338" y="16"/>
      <point x="378" y="-24"/>
      <point x="438" y="-24" type="curve" smooth="yes"/>
      <point x="762" y="-24" type="line" smooth="yes"/>
      <point x="822" y="-24"/>
      <point x="862" y="16"/>
      <point x="862" y="76" type="curve" smooth="yes"/>
    </contour>
    <contour>
      <point x="768" y="226" type="line"/>
      <point x="768" y="64" type="line"/>
      <point x="432" y="64" type="line"/>
      <point x="432" y="226" type="line"/>
    </contour>
    <contour>
      <point x="600" y="1536" type="line"/>
      <point x="982" y="1158" type="line"/>
      <point x="768" y="1158" type="line"/>
      <point x="768" y="594" type="line"/>
      <point x="432" y="594" type="line"/>
      <point x="432" y="1158" type="line"/>
      <point x="218" y="1158" type="line"/>
    </contour>
  </outline>
</glyph>
<glyph name="minus" format="2">
  <advance width="1200"/>
  <unicode hex="2212"/>
  <outline>
    <contour>
      <point x="950" y="687" type="line"/>
      <point x="250" y="687" type="line"/>
      <point x="250" y="563" type="line"/>
      <point x="950" y="563" type="line"/>
    </contour>
  </outline>
</glyph>
<glyph name="intersection" format="2">
  <advance width="1200"/>
  <unicode hex="2229"/>
  <outline>
    <contour>
      <point x="600" y="1123" type="curve" smooth="yes"/>
      <point x="363" y="1123"/>
      <point x="174" y="933"/>
      <point x="174" y="697" type="curve" smooth="yes"/>
      <point x="174" y="110" type="line"/>
      <point x="290" y="110" type="line"/>
      <point x="290" y="697" type="line" smooth="yes"/>
      <point x="290" y="867"/>
      <point x="430" y="1007"/>
      <point x="600" y="1007" type="curve" smooth="yes"/>
      <point x="770" y="1007"/>
      <point x="910" y="867"/>
      <point x="910" y="697" type="curve" smooth="yes"/>
      <point x="910" y="110" type="line"/>
      <point x="1026" y="110" type="line"/>
      <point x="1026" y="697" type="line" smooth="yes"/>
      <point x="1026" y="933"/>
      <point x="837" y="1123"/>
    </contour>
  </outline>
</glyph>
<glyph name="greaterequal" format="2">
  <advance width="1200"/>
  <unicode hex="2265"/>
  <outline>
    <contour>
      <point x="289" y="1035" type="line"/>
      <point x="231" y="917" type="line"/>
      <point x="877" y="640" type="line"/>
      <point x="231" y="373" type="line"/>
      <point x="289" y="265" type="line"/>
      <point x="967" y="567" type="line"/>
      <point x="967" y="716" type="line"/>
    </contour>
    <contour>
      <point x="970" y="121" type="line"/>
      <point x="271" y="121" type="line"/>
      <point x="271" y="0" type="line"/>
      <point x="970" y="0" type="line"/>
    </contour>
  </outline>
</glyph>
<glyph name="house" format="2">
  <advance width="1200"/>
  <unicode hex="2302"/>
  <outline>
    <contour>
      <point x="598" y="1078" type="line"/>
      <point x="80" y="616" type="line"/>
      <point x="80" y="0" type="line"/>
      <point x="1120" y="0" type="line"/>
      <point x="1120" y="616" type="line"/>
    </contour>
    <contour>
      <point x="598" y="896" type="line"/>
      <point x="980" y="554" type="line"/>
      <point x="980" y="130" type="line"/>
      <point x="220" y="130" type="line"/>
      <point x="220" y="554" type="line"/>
    </contour>
  </outline>
</glyph>
<glyph name="deleterightKey" format="2">
  <advance width="1200"/>
  <unicode hex="2326"/>
  <outline>
    <contour>
      <point x="800" y="1346" type="line"/>
      <point x="-60" y="1346" type="line" smooth="yes"/>
      <point x="-120" y="1346"/>
      <point x="-160" y="1306"/>
      <point x="-160" y="1246" type="curve" smooth="yes"/>
      <point x="-160" y="156" type="line" smooth="yes"/>
      <point x="-160" y="96"/>
      <point x="-120" y="56"/>
      <point x="-60" y="56" type="curve"/>
      <point x="800" y="56" type="line"/>
      <point x="1480" y="704" type="line"/>
    </contour>
    <contour>
      <point x="708" y="1114" type="line"/>
      <point x="842" y="976" type="line"/>
      <point x="574" y="710" type="line"/>
      <point x="842" y="442" type="line"/>
      <point x="708" y="308" type="line"/>
      <point x="440" y="576" type="line"/>
      <point x="172" y="308" type="line"/>
      <point x="38" y="442" type="line"/>
      <point x="306" y="710" type="line"/>
      <point x="38" y="976" type="line"/>
      <point x="172" y="1114" type="line"/>
      <point x="440" y="844" type="line"/>
    </contour>
  </outline>
</glyph>
<glyph name="boxHeavyDoubleDashVertical" format="2">
  <advance width="1200"/>
  <unicode hex="254F"/>
  <outline>
    <contour>
      <point x="840" y="428" type="line"/>
      <point x="360" y="428" type="line"/>
      <point x="360" y="-404" type="line"/>
      <point x="840" y="-404" type="line"/>
    </contour>
    <contour>
      <point x="840" y="1740" type="line"/>
      <point x="360" y="1740" type="line"/>
      <point x="360" y="908" type="line"/>
      <point x="840" y="908" type="line"/>
    </contour>
  </outline>
</glyph>
<glyph name="SF200000" format="2">
  <advance width="1200"/>
  <unicode hex="2562"/>
  <outline>
    <contour>
      <point x="520" y="2000" type="line"/>
      <point x="360" y="2000" type="line"/>
      <point x="360" y="780" type="line"/>
      <point x="-10" y="780" type="line"/>
      <point x="-10" y="620" type="line"/>
      <point x="360" y="620" type="line"/>
      <point x="360" y="-1000" type="line"/>
      <point x="520" y="-1000" type="line"/>
    </contour>
    <contour>
      <point x="840" y="2000" type="line"/>
      <point x="680" y="2000" type="line"/>
      <point x="680" y="-1000" type="line"/>
      <point x="840" y="-1000" type="line"/>
    </contour>
  </outline>
</glyph>
<glyph name="leftThreeEighthsBlock" format="2">
  <advance width="1200"/>
  <unicode hex="258D"/>
  <outline>
    <contour>
      <point x="450" y="2000" type="line"/>
      <point x="0" y="2000" type="line"/>
      <point x="0" y="-1000" type="line"/>
      <point x="450" y="-1000" type="line"/>
    </contour>
  </outline>
</glyph>
<glyph name="lozenge" format="2">
  <advance width="1200"/>
  <unicode hex="25CA"/>
  <outline>
    <contour>
      <point x="675" y="1374" type="line"/>
      <point x="519" y="1374" type="line"/>
      <point x="150" y="686" type="line"/>
      <point x="519" y="0" type="line"/>
      <point x="675" y="0" type="line"/>
      <point x="1050" y="689" type="line"/>
    </contour>
    <contour>
      <point x="604" y="1277" type="line"/>
      <point x="911" y="685" type="line"/>
      <point x="604" y="97" type="line"/>
      <point x="596" y="97" type="line"/>
      <point x="289" y="685" type="line"/>
      <point x="596" y="1277" type="line"/>
    </contour>
  </outline>
</glyph>
<glyph name="upperLeftQuadrantWhiteCircle" format="2">
  <advance width="1200"/>
  <unicode hex="25F4"/>
  <outline>
    <contour>
      <point x="600" y="1080" type="curve" smooth="yes"/>
      <point x="300" y="1080"/>
      <point x="60" y="838"/>
      <point x="60" y="540" type="curve" smooth="yes"/>
      <point x="60" y="240"/>
      <point x="300" y="0"/>
      <point x="600" y="0" type="curve" smooth="yes"/>
      <point x="898" y="0"/>
      <point x="1140" y="240"/>
      <point x="1140" y="540" type="curve" smooth="yes"/>
      <point x="1140" y="838"/>
      <point x="898" y="1080"/>
    </contour>
    <contour>
      <point x="680" y="910" type="line"/>
      <point x="850" y="874"/>
      <point x="980" y="720"/>
      <point x="980" y="540" type="curve" smooth="yes"/>
      <point x="980" y="330"/>
      <point x="808" y="160"/>
      <point x="600" y="160" type="curve" smooth="yes"/>
      <point x="416" y="160"/>
      <point x="266" y="288"/>
      <point x="228" y="460" type="curve"/>
      <point x="680" y="460" type="line"/>
    </contour>
    <contour>
      <point x="520" y="912" type="curve"/>
      <point x="520" y="620" type="line"/>
      <point x="228" y="620" type="line"/>
      <point x="260" y="764"/>
      <point x="374" y="880"/>
    </contour>
  </outline>
</glyph>
<glyph name="ballotBoxWithX" format="2">
  <advance width="1200"/>
  <unicode hex="2612"/>
  <outline>
    <contour>
      <point x="867" y="908" type="line"/>
      <point x="600" y="640" type="line"/>
      <point x="329" y="908" type="line"/>
      <point x="232" y="811" type="line"/>
      <point x="504" y="544" type="line"/>
      <point x="232" y="273" type="line"/>
      <point x="329" y="176" type="line"/>
      <point x="600" y="448" type="line"/>
      <point x="867" y="176" type="line"/>
      <point x="964" y="273" type="line"/>
      <point x="696" y="544" type="line"/>
      <point x="964" y="811" type="line"/>
    </contour>
    <component base="ballotBox"/>
  </outline>
</glyph>
<glyph name="invsmileface" format="2">
  <advance width="1200"/>
  <unicode hex="263B"/>
  <outline>
    <contour>
      <point x="600" y="1078" type="curve" smooth="yes"/>
      <point x="300" y="1078"/>
      <point x="60" y="838"/>
      <point x="60" y="540" type="curve" smooth="yes"/>
      <point x="60" y="240"/>
      <point x="300" y="0"/>
      <point x="600" y="0" type="curve" smooth="yes"/>
      <point x="898" y="0"/>
      <point x="1140" y="240"/>
      <point x="1140" y="540" type="curve" smooth="yes"/>
      <point x="1140" y="838"/>
      <point x="898" y="1078"/>
    </contour>
    <contour>
      <point x="894" y="470" type="line"/>
      <point x="876" y="324"/>
      <point x="758" y="204"/>
      <point x="600" y="204" type="curve" smooth="yes"/>
      <point x="442" y="204"/>
      <point x="324" y="324"/>
      <point x="306" y="470" type="curve"/>
      <point x="392" y="470" type="line"/>
      <point x="418" y="366"/>
      <point x="486" y="292"/>
      <point x="600" y="292" type="curve" smooth="yes"/>
      <point x="714" y="292"/>
      <point x="782" y="366"/>
      <point x="808" y="470" type="curve"/>
    </contour>
    <contour>
      <point x="426" y="792" type="curve" smooth="yes"/>
      <point x="482" y="792"/>
      <point x="522" y="752"/>
      <point x="522" y="702" type="curve" smooth="yes"/>
      <point x="522" y="648"/>
      <point x="482" y="608"/>
      <point x="426" y="608" type="curve" smooth="yes"/>
      <point x="370" y="608"/>
      <point x="330" y="648"/>
      <point x="330" y="702" type="curve" smooth="yes"/>
      <point x="330" y="752"/>
      <point x="370" y="792"/>
    </contour>
    <contour>
      <point x="766" y="792" type="curve" smooth="yes"/>
      <point x="822" y="792"/>
      <point x="862" y="752"/>
      <point x="862" y="702" type="curve" smooth="yes"/>
      <point x="862" y="648"/>
      <point x="822" y="608"/>
      <point x="766" y="608" type="curve" smooth="yes"/>
      <point x="710" y="608"/>
      <point x="670" y="648"/>
      <point x="670" y="702" type="curve" smooth="yes"/>
      <point x="670" y="752"/>
      <point x="710" y="792"/>
    </contour>
  </outline>
</glyph>
<glyph name="diamond" format="2">
  <advance width="1200"/>
  <unicode hex="2666"/>
  <outline>
    <contour>
      <point x="600" y="1078" type="line"/>
      <point x="208" y="532" type="line"/>
      <point x="600" y="-24" type="line"/>
      <point x="992" y="532" type="line"/>
    </contour>
  </outline>
</glyph>
<glyph name="musicalnote" format="2">
  <advance width="1200"/>
  <unicode hex="266A"/>
  <outline>
    <contour>
      <point x="676" y="1054" type="line"/>
      <point x="580" y="1054" type="line"/>
      <point x="580" y="270" type="line"/>
      <point x="550" y="286"/>
      <point x="514" y="296"/>
      <point x="468" y="296" type="curve" smooth="yes"/>
      <point x="328" y="296"/>
      <point x="218" y="216"/>
      <point x="218" y="116" type="curve" smooth="yes"/>
      <point x="218" y="24"/>
      <point x="298" y="-24"/>
      <point x="428" y="-24" type="curve" smooth="yes"/>
      <point x="574" y="-24"/>
      <point x="676" y="76"/>
      <point x="676" y="156" type="curve" smooth="yes"/>
      <point x="676" y="920" type="line"/>
      <point x="722" y="890" type="line" smooth="yes"/>
      <point x="812" y="832"/>
      <point x="838" y="772"/>
      <point x="838" y="614" type="curve"/>
      <point x="896" y="590" type="line"/>
      <point x="916" y="632"/>
      <point x="932" y="686"/>
      <point x="932" y="746" type="curve" smooth="yes"/>
      <point x="932" y="852"/>
      <point x="890" y="912"/>
      <point x="770" y="992" type="curve" smooth="yes"/>
    </contour>
  </outline>
</glyph>
<glyph name="uniE0A2" format="2">
  <advance width="1200"/>
  <unicode hex="E0A2"/>
  <outline>
    <contour>
      <point x="318" y="884" type="line"/>
      <point x="318" y="1346" type="line" smooth="yes"/>
      <point x="318" y="1498"/>
      <point x="420" y="1600"/>
      <point x="572" y="1600" type="curve" smooth="yes"/>
      <point x="628" y="1600" type="line" smooth="yes"/>
      <point x="780" y="1600"/>
      <point x="882" y="1498"/>
      <point x="882" y="1346" type="curve" smooth="yes"/>
      <point x="882" y="884" type="line"/>
      <point x="974" y="884" type="line" smooth="yes"/>
      <point x="1036" y="884"/>
      <point x="1092" y="858"/>
      <point x="1132" y="818" type="curve" smooth="yes"/>
      <point x="1172" y="778"/>
      <point x="1198" y="724"/>
      <point x="1198" y="662" type="curve" smooth="yes"/>
      <point x="1198" y="114" type="line" smooth="yes"/>
      <point x="1198" y="52"/>
      <point x="1172" y="-2"/>
      <point x="1132" y="-42" type="curve" smooth="yes"/>
      <point x="1092" y="-82"/>
      <point x="1036" y="-108"/>
      <point x="974" y="-108" type="curve" smooth="yes"/>
      <point x="224" y="-108" type="line" smooth="yes"/>
      <point x="162" y="-108"/>
      <point x="108" y="-82"/>
      <point x="68" y="-42" type="curve" smooth="yes"/>
      <point x="28" y="-2"/>
      <point x="2" y="52"/>
      <point x="2" y="114" type="curve" smooth="yes"/>
      <point x="2" y="662" type="line" smooth="yes"/>
      <point x="2" y="724"/>
      <point x="28" y="778"/>
      <point x="68" y="818" type="curve" smooth="yes"/>
      <point x="108" y="858"/>
      <point x="162" y="884"/>
      <point x="224" y="884" type="curve" smooth="yes"/>
    </contour>
    <contour>
      <point x="465" y="884" type="line"/>
      <point x="735" y="884" type="line"/>
      <point x="735" y="1361" type="line" smooth="yes"/>
      <point x="735" y="1441"/>
      <point x="694" y="1483"/>
      <point x="613" y="1483" type="curve" smooth="yes"/>
      <point x="587" y="1483" type="line" smooth="yes"/>
      <point x="506" y="1483"/>
      <point x="465" y="1441"/>
      <point x="465" y="1361" type="curve" smooth="yes"/>
    </contour>
    <contour>
      <point x="1064" y="113" type="curve" smooth="yes"/>
      <point x="1064" y="663" type="line" smooth="yes"/>
      <point x="1064" y="712"/>
      <point x="1022" y="752"/>
      <point x="972" y="752" type="curve" smooth="yes"/>
      <point x="226" y="752" type="line" smooth="yes"/>
      <point x="175" y="752"/>
      <point x="136" y="712"/>
      <point x="136" y="663" type="curve" smooth="yes"/>
      <point x="136" y="113" type="line" smooth="yes"/>
      <point x="136" y="64"/>
      <point x="175" y="24"/>
      <point x="226" y="24" type="curve" smooth="yes"/>
      <point x="972" y="24" type="line" smooth="yes"/>
      <point x="1022" y="24"/>
      <point x="1064" y="64"/>
    </contour>
    <contour>
      <point x="600" y="346" type="curve" smooth="yes"/>
      <point x="678" y="346"/>
      <point x="742" y="410"/>
      <point x="742" y="490" type="curve" smooth="yes"/>
      <point x="742" y="568"/>
      <point x="678" y="624"/>
      <point x="600" y="632" type="curve" smooth="yes"/>
      <point x="522" y="624"/>
      <point x="456" y="568"/>
      <point x="456" y="490" type="curve" smooth="yes"/>
      <point x="456" y="410"/>
      <point x="522" y="346"/>
    </contour>
    <contour>
      <point x="528" y="398" type="line"/>
      <point x="528" y="146" type="line"/>
      <point x="674" y="146" type="line"/>
      <point x="674" y="398" type="line"/>
    </contour>
  </outline>
</glyph>
<glyph name="fi" format="2">
  <advance width="1200"/>
  <unicode hex="FB01"/>
  <outline>
    <contour>
      <point x="1170" y="0" type="line"/>
      <point x="1170" y="108" type="line"/>
      <point x="963" y="108" type="line"/>
      <point x="963" y="1050" type="line"/>
      <point x="365" y="1050" type="line"/>
      <point x="365" y="1199" type="line" smooth="yes"/>
      <point x="365" y="1321"/>
      <point x="446" y="1383"/>
      <point x="604" y="1383" type="curve" smooth="yes"/>
      <point x="686" y="1383"/>
      <point x="764" y="1368"/>
      <point x="829" y="1337" type="curve"/>
      <point x="875" y="1438" type="line"/>
      <point x="794" y="1473"/>
      <point x="713" y="1492"/>
      <point x="613" y="1492" type="curve" smooth="yes"/>
      <point x="414" y="1492"/>
      <point x="235" y="1381"/>
      <point x="235" y="1191" type="curve" smooth="yes"/>
      <point x="235" y="1050" type="line"/>
      <point x="46" y="1050" type="line"/>
      <point x="46" y="944" type="line"/>
      <point x="235" y="944" type="line"/>
      <point x="235" y="0" type="line"/>
      <point x="365" y="0" type="line"/>
      <point x="365" y="944" type="line"/>
      <point x="834" y="944" type="line"/>
      <point x="834" y="108" type="line"/>
      <point x="627" y="108" type="line"/>
      <point x="627" y="0" type="line"/>
    </contour>
  </outline>
</glyph>
<glyph name="Ksi-cyHELPER" format="2">
  <advance width="1200"/>
  <anchor x="567" y="1374" name="top"/>
  <outline>
    <contour>
      <point x="433" y="-420" type="curve"/>
      <point x="481" y="-331" type="line"/>
      <point x="386" y="-285"/>
      <point x="337" y="-234"/>
      <point x="337" y="-182" type="curve" smooth="yes"/>
      <point x="337" y="-115"/>
      <point x="394" y="-90"/>
      <point x="606" y="-78" type="curve" smooth="yes"/>
      <point x="846" y="-66"/>
      <point x="1022" y="99"/>
      <point x="1022" y="343" type="curve"/>
      <point x="887" y="335" type="line"/>
      <point x="887" y="142"/>
      <point x="761" y="42"/>
      <point x="548" y="33" type="curve" smooth="yes"/>
      <point x="324" y="29"/>
      <point x="210" y="-43"/>
      <point x="210" y="-173" type="curve" smooth="yes"/>
      <point x="210" y="-280"/>
      <point x="289" y="-358"/>
    </contour>
    <contour>
      <point x="1022" y="343" type="line"/>
      <point x="1022" y="586"/>
      <point x="859" y="749"/>
      <point x="565" y="745" type="curve"/>
      <point x="471" y="745" type="line"/>
      <point x="353" y="635" type="line"/>
      <point x="553" y="635" type="line" smooth="yes"/>
      <point x="772" y="635"/>
      <point x="887" y="555"/>
      <point x="887" y="335" type="curve"/>
    </contour>
    <contour>
      <point x="353" y="635" type="line"/>
      <point x="451" y="692" type="line"/>
      <point x="957" y="1258" type="line"/>
      <point x="957" y="1374" type="line"/>
      <point x="178" y="1374" type="line"/>
      <point x="178" y="1259" type="line"/>
      <point x="789" y="1259" type="line"/>
      <point x="353" y="748" type="line"/>
    </contour>
  </outline>
</glyph>
<glyph name="_part.arrowhead2" format="2">
  <advance width="1200"/>
  <outline>
    <contour>
      <point x="515" y="1212" type="line"/>
      <point x="415" y="1128" type="line"/>
      <point x="556" y="975" type="line"/>
      <point x="589" y="937"/>
      <point x="623" y="900"/>
      <point x="688" y="863" type="curve"/>
      <point x="760" y="748" type="line"/>
      <point x="875" y="622" type="line"/>
      <point x="760" y="496" type="line"/>
      <point x="688" y="380" type="line"/>
      <point x="623" y="344"/>
      <point x="589" y="309"/>
      <point x="556" y="272" type="curve"/>
      <point x="415" y="116" type="line"/>
      <point x="515" y="32" type="line"/>
      <point x="1041" y="622" type="line"/>
    </contour>
  </outline>
</glyph>
<glyph name="_part.numbersign" format="2">
  <advance width="2400"/>
  <outline>
    <contour>
      <point x="1018" y="918" type="line"/>
      <point x="1623" y="918" type="line"/>
      <point x="1623" y="1026" type="line"/>
      <point x="1031" y="1026" type="line"/>
      <point x="1081" y="1374" type="line"/>
      <point x="972" y="1374" type="line"/>
      <point x="926" y="1026" type="line"/>
      <point x="602" y="1026" type="line"/>
      <point x="652" y="1374" type="line"/>
      <point x="544" y="1374" type="line"/>
      <point x="497" y="1026" type="line"/>
      <point x="310" y="1026" type="line"/>
      <point x="310" y="918" type="line"/>
      <point x="483" y="918" type="line"/>
      <point x="420" y="461" type="line"/>
      <point x="236" y="461" type="line"/>
      <point x="236" y="354" type="line"/>
      <point x="406" y="354" type="line"/>
      <point x="358" y="0" type="line"/>
      <point x="467" y="0" type="line"/>
      <point x="513" y="354" type="line"/>
      <point x="834" y="354" type="line"/>
      <point x="787" y="0" type="line"/>
      <point x="896" y="0" type="line"/>
      <point x="940" y="354" type="line"/>
      <point x="1623" y="354" type="line"/>
      <point x="1623" y="461" type="line"/>
      <point x="956" y="461" type="line"/>
    </contour>
    <contour>
      <point x="528" y="461" type="line"/>
      <point x="589" y="918" type="line"/>
      <point x="912" y="918" type="line"/>
      <point x="849" y="461" type="line"/>
    </contour>
  </outline>
</glyph>
<glyph name="asciicircum_equal.liga" format="2">
  <advance width="1200"/>
  <outline>
    <contour>
      <point x="-48" y="863" type="line"/>
      <point x="-446" y="1516" type="line"/>
      <point x="-554" y="1516" type="line"/>
      <point x="-932" y="894" type="line"/>
      <point x="-792" y="894" type="line"/>
      <point x="-502" y="1391" type="line"/>
      <point x="-127" y="748" type="line"/>
      <point x="870" y="748" type="line"/>
      <point x="870" y="863" type="line"/>
    </contour>
    <contour>
      <point x="-127" y="380" type="line"/>
      <point x="870" y="380" type="line"/>
      <point x="870" y="496" type="line"/>
      <point x="-127" y="496" type="line"/>
    </contour>
  </outline>
</glyph>
<glyph name="asciitilde_asciitilde_asciitilde.rem" format="2">
  <advance width="1200"/>
  <outline>
    <contour>
      <point x="558" y="757" type="line"/>
      <point x="507" y="664"/>
      <point x="438" y="584"/>
      <point x="354" y="584" type="curve" smooth="yes"/>
      <point x="231" y="584"/>
      <point x="174" y="784"/>
      <point x="-28" y="784" type="curve" smooth="yes"/>
      <point x="-216" y="784"/>
      <point x="-281" y="584"/>
      <point x="-407" y="584" type="curve" smooth="yes"/>
      <point x="-530" y="584"/>
      <point x="-586" y="784"/>
      <point x="-788" y="784" type="curve" smooth="yes"/>
      <point x="-976" y="784"/>
      <point x="-1041" y="584"/>
      <point x="-1167" y="584" type="curve" smooth="yes"/>
      <point x="-1290" y="584"/>
      <point x="-1347" y="784"/>
      <point x="-1549" y="784" type="curve" smooth="yes"/>
      <point x="-1726" y="784"/>
      <point x="-1808" y="649"/>
      <point x="-1861" y="547" type="curve"/>
      <point x="-1758" y="493" type="line"/>
      <point x="-1706" y="589"/>
      <point x="-1643" y="666"/>
      <point x="-1554" y="666" type="curve" smooth="yes"/>
      <point x="-1425" y="666"/>
      <point x="-1358" y="466"/>
      <point x="-1172" y="466" type="curve" smooth="yes"/>
      <point x="-984" y="466"/>
      <point x="-919" y="666"/>
      <point x="-793" y="666" type="curve" smooth="yes"/>
      <point x="-665" y="666"/>
      <point x="-598" y="466"/>
      <point x="-412" y="466" type="curve" smooth="yes"/>
      <point x="-224" y="466"/>
      <point x="-159" y="666"/>
      <point x="-33" y="666" type="curve" smooth="yes"/>
      <point x="96" y="666"/>
      <point x="162" y="466"/>
      <point x="349" y="466" type="curve" smooth="yes"/>
      <point x="524" y="466"/>
      <point x="609" y="608"/>
      <point x="661" y="701" type="curve"/>
    </contour>
  </outline>
</glyph>
<glyph name="asciitilde_asciitilde_greater.liga" format="2">
  <advance width="1200"/>
  <outline>
    <contour>
      <point x="563" y="580" type="curve" smooth="yes"/>
      <point x="419" y="580"/>
      <point x="378" y="780"/>
      <point x="163" y="780" type="curve" smooth="yes"/>
      <point x="-53" y="780"/>
      <point x="-94" y="580"/>
      <point x="-237" y="580" type="curve" smooth="yes"/>
      <point x="-377" y="580"/>
      <point x="-432" y="780"/>
      <point x="-637" y="780" type="curve" smooth="yes"/>
      <point x="-853" y="780"/>
      <point x="-893" y="580"/>
      <point x="-1037" y="580" type="curve" smooth="yes"/>
      <point x="-1181" y="580"/>
      <point x="-1222" y="780"/>
      <point x="-1437" y="780" type="curve" smooth="yes"/>
      <point x="-1653" y="780"/>
      <point x="-1694" y="580"/>
      <point x="-1837" y="580" type="curve" smooth="yes"/>
      <point x="-1914" y="580"/>
      <point x="-1992" y="651"/>
      <point x="-2041" y="745" type="curve"/>
      <point x="-2159" y="685" type="line"/>
      <point x="-2125" y="611"/>
      <point x="-1984" y="464"/>
      <point x="-1837" y="464" type="curve" smooth="yes"/>
      <point x="-1622" y="464"/>
      <point x="-1581" y="664"/>
      <point x="-1437" y="664" type="curve" smooth="yes"/>
      <point x="-1293" y="664"/>
      <point x="-1254" y="452"/>
      <point x="-1037" y="452" type="curve" smooth="yes"/>
      <point x="-822" y="452"/>
      <point x="-780" y="635"/>
      <point x="-637" y="635" type="curve" smooth="yes"/>
      <point x="-497" y="635"/>
      <point x="-442" y="464"/>
      <point x="-237" y="464" type="curve" smooth="yes"/>
      <point x="-22" y="464"/>
      <point x="19" y="664"/>
      <point x="163" y="664" type="curve" smooth="yes"/>
      <point x="307" y="664"/>
      <point x="346" y="452"/>
      <point x="563" y="452" type="curve" smooth="yes"/>
      <point x="768" y="452"/>
      <point x="784" y="588"/>
      <point x="945" y="612" type="curve"/>
      <point x="945" y="749" type="line"/>
      <point x="737" y="750"/>
      <point x="703" y="580"/>
    </contour>
    <component base="_part.arrowhead1"/>
  </outline>
</glyph>
<glyph name="asciitilde_at.liga" format="2">
  <advance width="1200"/>
  <outline>
    <contour>
      <point x="565" y="1393" type="curve" smooth="yes"/>
      <point x="476" y="1393"/>
      <point x="151" y="1385"/>
      <point x="14" y="1197" type="curve" smooth="yes"/>
      <point x="-102" y="1043"/>
      <point x="-172" y="809"/>
      <point x="-203" y="757" type="curve" smooth="yes"/>
      <point x="-255" y="664"/>
      <point x="-322" y="584"/>
      <point x="-407" y="584" type="curve" smooth="yes"/>
      <point x="-530" y="584"/>
      <point x="-586" y="784"/>
      <point x="-788" y="784" type="curve" smooth="yes"/>
      <point x="-965" y="784"/>
      <point x="-1047" y="649"/>
      <point x="-1100" y="547" type="curve"/>
      <point x="-997" y="493" type="line"/>
      <point x="-945" y="589"/>
      <point x="-883" y="666"/>
      <point x="-793" y="666" type="curve" smooth="yes"/>
      <point x="-665" y="666"/>
      <point x="-598" y="466"/>
      <point x="-412" y="466" type="curve" smooth="yes"/>
      <point x="-237" y="466"/>
      <point x="-152" y="608"/>
      <point x="-100" y="701" type="curve" smooth="yes"/>
      <point x="-68" y="756"/>
      <point x="-9" y="970"/>
      <point x="103" y="1110" type="curve" smooth="yes"/>
      <point x="215" y="1251"/>
      <point x="507" y="1261"/>
      <point x="572" y="1261" type="curve" smooth="yes"/>
      <point x="954" y="1261"/>
      <point x="1012" y="936"/>
      <point x="1012" y="565" type="curve" smooth="yes"/>
      <point x="1012" y="244"/>
      <point x="1014" y="-62"/>
      <point x="875" y="-62" type="curve" smooth="yes"/>
      <point x="789" y="-62"/>
      <point x="716" y="-16"/>
      <point x="716" y="220" type="curve" smooth="yes"/>
      <point x="716" y="808" type="line"/>
      <point x="603" y="868"/>
      <point x="539" y="879"/>
      <point x="450" y="879" type="curve" smooth="yes"/>
      <point x="216" y="879"/>
      <point x="67" y="723"/>
      <point x="67" y="370" type="curve" smooth="yes"/>
      <point x="67" y="103"/>
      <point x="151" y="-89"/>
      <point x="363" y="-89" type="curve" smooth="yes"/>
      <point x="528" y="-89"/>
      <point x="599" y="18"/>
      <point x="634" y="108" type="curve"/>
      <point x="642" y="108" type="line"/>
      <point x="634" y="25"/>
      <point x="704" y="-179"/>
      <point x="876" y="-179" type="curve" smooth="yes"/>
      <point x="1112" y="-179"/>
      <point x="1163" y="59"/>
      <point x="1163" y="563" type="curve" smooth="yes"/>
      <point x="1163" y="944"/>
      <point x="1094" y="1393"/>
    </contour>
    <contour>
      <point x="605" y="202" type="line"/>
      <point x="577" y="145"/>
      <point x="526" y="16"/>
      <point x="372" y="16" type="curve" smooth="yes"/>
      <point x="237" y="16"/>
      <point x="195" y="170"/>
      <point x="195" y="370" type="curve" smooth="yes"/>
      <point x="195" y="628"/>
      <point x="257" y="777"/>
      <point x="462" y="777" type="curve" smooth="yes"/>
      <point x="515" y="777"/>
      <point x="558" y="768"/>
      <point x="605" y="744" type="curve"/>
    </contour>
  </outline>
</glyph>
<glyph name="asciitilde_equal.liga" format="2">
  <advance width="1200"/>
  <outline>
    <contour>
      <point x="670" y="496" type="line"/>
      <point x="-670" y="496" type="line"/>
      <point x="-670" y="380" type="line"/>
      <point x="670" y="380" type="line"/>
    </contour>
    <contour>
      <point x="-298" y="979" type="curve" smooth="yes"/>
      <point x="-524" y="979"/>
      <point x="-647" y="815"/>
      <point x="-700" y="713" type="curve"/>
      <point x="-597" y="676" type="line"/>
      <point x="-545" y="772"/>
      <point x="-442" y="878"/>
      <point x="-303" y="878" type="curve" smooth="yes"/>
      <point x="-146" y="878"/>
      <point x="55" y="649"/>
      <point x="273" y="649" type="curve" smooth="yes"/>
      <point x="505" y="649"/>
      <point x="649" y="791"/>
      <point x="700" y="884" type="curve"/>
      <point x="597" y="924" type="line"/>
      <point x="546" y="830"/>
      <point x="419" y="751"/>
      <point x="278" y="751" type="curve" smooth="yes"/>
      <point x="123" y="751"/>
      <point x="-68" y="979"/>
    </contour>
  </outline>
</glyph>
<glyph name="bracketleft_bracketright.rem" format="2">
  <advance width="1200"/>
  <outline>
    <contour>
      <point x="815" y="1626" type="line"/>
      <point x="-815" y="1626" type="line"/>
      <point x="-815" y="-226" type="line"/>
      <point x="815" y="-226" type="line"/>
    </contour>
    <contour>
      <point x="698" y="-112" type="line"/>
      <point x="-698" y="-111" type="line"/>
      <point x="-698" y="1509" type="line"/>
      <point x="698" y="1509" type="line"/>
    </contour>
  </outline>
</glyph>
<glyph name="descTail-cy.case" format="2">
  <advance width="1200"/>
  <anchor x="734" y="0" name="_bottom"/>
  <anchor x="557" y="0" name="_bottomleft"/>
  <anchor x="655" y="0" name="_bottomright"/>
  <outline>
    <contour>
      <point x="815" y="89" type="line"/>
      <point x="611" y="89" type="line"/>
      <point x="609" y="0" type="line"/>
      <point x="643" y="0" type="line"/>
      <point x="578" y="-278" type="line"/>
      <point x="673" y="-278" type="line"/>
    </contour>
  </outline>
</glyph>
<glyph name="dollar_greater.liga" format="2">
  <advance width="1200"/>
  <outline>
    <contour>
      <point x="-311" y="1692" type="line"/>
      <point x="-438" y="1692" type="line"/>
      <point x="-438" y="1386" type="line"/>
      <point x="-683" y="1363"/>
      <point x="-793" y="1208"/>
      <point x="-793" y="1065" type="curve" smooth="yes"/>
      <point x="-793" y="881"/>
      <point x="-656" y="765"/>
      <point x="-438" y="692" type="curve"/>
      <point x="-438" y="16" type="line"/>
      <point x="-573" y="4"/>
      <point x="-672" y="16"/>
      <point x="-924" y="169" type="curve"/>
      <point x="-924" y="29" type="line"/>
      <point x="-708" y="-81"/>
      <point x="-604" y="-107"/>
      <point x="-438" y="-95" type="curve"/>
      <point x="-438" y="-301" type="line"/>
      <point x="-311" y="-301" type="line"/>
      <point x="-311" y="-92" type="line"/>
      <point x="-84" y="-56"/>
      <point x="111" y="89"/>
      <point x="111" y="351" type="curve" smooth="yes"/>
      <point x="111" y="608"/>
      <point x="-130" y="730"/>
      <point x="-311" y="788" type="curve"/>
      <point x="-311" y="1296" type="line"/>
      <point x="-206" y="1281"/>
      <point x="-62" y="1241"/>
      <point x="187" y="1080" type="curve"/>
      <point x="187" y="1216" type="line"/>
      <point x="63" y="1295"/>
      <point x="-152" y="1369"/>
      <point x="-311" y="1386" type="curve"/>
    </contour>
    <contour>
      <point x="-311" y="651" type="line"/>
      <point x="-143" y="584"/>
      <point x="-37" y="469"/>
      <point x="-37" y="362" type="curve" smooth="yes"/>
      <point x="-37" y="127"/>
      <point x="-161" y="56"/>
      <point x="-311" y="27" type="curve"/>
    </contour>
    <contour>
      <point x="-438" y="1291" type="curve"/>
      <point x="-438" y="827" type="line"/>
      <point x="-597" y="890"/>
      <point x="-645" y="957"/>
      <point x="-645" y="1057" type="curve" smooth="yes"/>
      <point x="-645" y="1185"/>
      <point x="-556" y="1271"/>
    </contour>
    <contour>
      <point x="187" y="1216" type="line"/>
      <point x="187" y="1080" type="line"/>
      <point x="910" y="625" type="line"/>
      <point x="338" y="275" type="line"/>
      <point x="311" y="102" type="line"/>
      <point x="1016" y="549" type="line"/>
      <point x="1016" y="705" type="line"/>
    </contour>
  </outline>
</glyph>
<glyph name="eight.dnom" format="2">
  <advance width="1200"/>
  <outline>
    <contour>
      <point x="879" y="489" type="curve" smooth="yes"/>
      <point x="879" y="579"/>
      <point x="772" y="654"/>
      <point x="600" y="654" type="curve" smooth="yes"/>
      <point x="445" y="654"/>
      <point x="325" y="585"/>
      <point x="325" y="484" type="curve" smooth="yes"/>
      <point x="325" y="398"/>
      <point x="368" y="353"/>
      <point x="451" y="334" type="curve"/>
      <point x="350" y="312"/>
      <point x="287" y="257"/>
      <point x="287" y="184" type="curve" smooth="yes"/>
      <point x="287" y="68"/>
      <point x="405" y="-12"/>
      <point x="600" y="-12" type="curve" smooth="yes"/>
      <point x="788" y="-12"/>
      <point x="913" y="65"/>
      <point x="913" y="188" type="curve" smooth="yes"/>
      <point x="913" y="270"/>
      <point x="849" y="316"/>
      <point x="734" y="351" type="curve"/>
      <point x="813" y="354"/>
      <point x="879" y="394"/>
    </contour>
    <contour>
      <point x="786" y="189" type="curve" smooth="yes"/>
      <point x="786" y="139"/>
      <point x="716" y="95"/>
      <point x="597" y="95" type="curve" smooth="yes"/>
      <point x="473" y="95"/>
      <point x="414" y="130"/>
      <point x="414" y="186" type="curve" smooth="yes"/>
      <point x="414" y="235"/>
      <point x="461" y="273"/>
      <point x="549" y="297" type="curve"/>
      <point x="687" y="275"/>
      <point x="786" y="253"/>
    </contour>
    <contour>
      <point x="444" y="486" type="curve" smooth="yes"/>
      <point x="444" y="523"/>
      <point x="492" y="555"/>
      <point x="600" y="555" type="curve" smooth="yes"/>
      <point x="711" y="555"/>
      <point x="758" y="521"/>
      <point x="758" y="484" type="curve" smooth="yes"/>
      <point x="758" y="434"/>
      <point x="715" y="413"/>
      <point x="634" y="390" type="curve"/>
      <point x="494" y="414"/>
      <point x="444" y="436"/>
    </contour>
  </outline>
</glyph>
<glyph name="hookHELPER" format="2">
  <advance width="1200"/>
  <outline>
    <contour>
      <point x="245" y="-414" type="curve" smooth="yes"/>
      <point x="397" y="-414"/>
      <point x="507" y="-323"/>
      <point x="507" y="-142" type="curve" smooth="yes"/>
      <point x="507" y="2" type="line"/>
      <point x="383" y="2" type="line"/>
      <point x="383" y="-150" type="line" smooth="yes"/>
      <point x="383" y="-260"/>
      <point x="328" y="-304"/>
      <point x="245" y="-304" type="curve" smooth="yes"/>
      <point x="173" y="-304"/>
      <point x="134" y="-286"/>
      <point x="83" y="-256" type="curve"/>
      <point x="34" y="-344" type="line"/>
      <point x="75" y="-376"/>
      <point x="147" y="-414"/>
    </contour>
  </outline>
</glyph>
<glyph name="hyphen_less_less.liga" format="2">
  <advance width="1200"/>
  <outline>
    <contour>
      <point x="-2141" y="568" type="line"/>
      <point x="-142" y="568" type="line"/>
      <point x="-142" y="684" type="line"/>
      <point x="-2141" y="684" type="line"/>
    </contour>
    <component base="_part.arrowhead" xScale="-1" xOffset="705"/>
    <component base="_part.arrowhead" xScale="-1" xOffset="1255"/>
  </outline>
</glyph>
<glyph name="less_dollar.liga" format="2">
  <advance width="1200"/>
  <outline>
    <contour>
      <point x="489" y="1692" type="line"/>
      <point x="362" y="1692" type="line"/>
      <point x="362" y="1386" type="line"/>
      <point x="117" y="1363"/>
      <point x="7" y="1208"/>
      <point x="7" y="1065" type="curve" smooth="yes"/>
      <point x="7" y="881"/>
      <point x="144" y="765"/>
      <point x="362" y="692" type="curve"/>
      <point x="362" y="16" type="line"/>
      <point x="227" y="4"/>
      <point x="128" y="16"/>
      <point x="-124" y="169" type="curve"/>
      <point x="-124" y="29" type="line"/>
      <point x="92" y="-81"/>
      <point x="196" y="-107"/>
      <point x="362" y="-95" type="curve"/>
      <point x="362" y="-301" type="line"/>
      <point x="489" y="-301" type="line"/>
      <point x="489" y="-92" type="line"/>
      <point x="716" y="-56"/>
      <point x="911" y="89"/>
      <point x="911" y="351" type="curve" smooth="yes"/>
      <point x="911" y="608"/>
      <point x="670" y="730"/>
      <point x="489" y="788" type="curve"/>
      <point x="489" y="1296" type="line"/>
      <point x="594" y="1281"/>
      <point x="738" y="1241"/>
      <point x="987" y="1080" type="curve"/>
      <point x="987" y="1216" type="line"/>
      <point x="863" y="1295"/>
      <point x="648" y="1369"/>
      <point x="489" y="1386" type="curve"/>
    </contour>
    <contour>
      <point x="489" y="651" type="line"/>
      <point x="657" y="584"/>
      <point x="763" y="469"/>
      <point x="763" y="362" type="curve" smooth="yes"/>
      <point x="763" y="127"/>
      <point x="639" y="56"/>
      <point x="489" y="27" type="curve"/>
    </contour>
    <contour>
      <point x="362" y="1291" type="curve"/>
      <point x="362" y="827" type="line"/>
      <point x="203" y="890"/>
      <point x="155" y="957"/>
      <point x="155" y="1057" type="curve" smooth="yes"/>
      <point x="155" y="1185"/>
      <point x="244" y="1271"/>
    </contour>
    <contour>
      <point x="-209" y="1163" type="line"/>
      <point x="-953" y="705" type="line"/>
      <point x="-953" y="549" type="line"/>
      <point x="-124" y="29" type="line"/>
      <point x="-124" y="169" type="line"/>
      <point x="-847" y="625" type="line"/>
      <point x="-230" y="1007" type="line"/>
    </contour>
  </outline>
</glyph>
<glyph name="numbersign_colon.liga_rem" format="2">
  <advance width="1200"/>
  <outline>
    <contour>
      <point x="497" y="405" type="curve" smooth="yes"/>
      <point x="497" y="320"/>
      <point x="563" y="256"/>
      <point x="643" y="256" type="curve" smooth="yes"/>
      <point x="732" y="256"/>
      <point x="795" y="320"/>
      <point x="793" y="405" type="curve" smooth="yes"/>
      <point x="790" y="484"/>
      <point x="732" y="552"/>
      <point x="643" y="552" type="curve" smooth="yes"/>
      <point x="563" y="552"/>
      <point x="497" y="484"/>
    </contour>
    <contour>
      <point x="567" y="942" type="curve" smooth="yes"/>
      <point x="567" y="860"/>
      <point x="629" y="793"/>
      <point x="712" y="793" type="curve" smooth="yes"/>
      <point x="799" y="793"/>
      <point x="862" y="860"/>
      <point x="862" y="942" type="curve" smooth="yes"/>
      <point x="862" y="1025"/>
      <point x="799" y="1088"/>
      <point x="712" y="1088" type="curve" smooth="yes"/>
      <point x="629" y="1088"/>
      <point x="567" y="1025"/>
    </contour>
    <component base="numbersign" xOffset="-1000"/>
  </outline>
</glyph>
<glyph name="numbersign_equal.liga" format="2">
  <advance width="1200"/>
  <outline>
    <contour>
      <point x="-324" y="775" type="line"/>
      <point x="-139" y="775" type="line"/>
      <point x="-139" y="883" type="line"/>
      <point x="-311" y="883" type="line"/>
      <point x="-239" y="1374" type="line"/>
      <point x="-348" y="1374" type="line"/>
      <point x="-416" y="883" type="line"/>
      <point x="-740" y="883" type="line"/>
      <point x="-668" y="1374" type="line"/>
      <point x="-776" y="1374" type="line"/>
      <point x="-845" y="883" type="line"/>
      <point x="-1032" y="883" type="line"/>
      <point x="-1032" y="775" type="line"/>
      <point x="-859" y="775" type="line"/>
      <point x="-897" y="499" type="line"/>
      <point x="-1081" y="499" type="line"/>
      <point x="-1081" y="393" type="line"/>
      <point x="-911" y="393" type="line"/>
      <point x="-962" y="0" type="line"/>
      <point x="-853" y="0" type="line"/>
      <point x="-803" y="393" type="line"/>
      <point x="-483" y="393" type="line"/>
      <point x="-533" y="0" type="line"/>
      <point x="-424" y="0" type="line"/>
      <point x="-377" y="393" type="line"/>
      <point x="-188" y="393" type="line"/>
      <point x="-188" y="499" type="line"/>
      <point x="-361" y="499" type="line"/>
    </contour>
    <contour>
      <point x="-789" y="499" type="line"/>
      <point x="-753" y="775" type="line"/>
      <point x="-430" y="775" type="line"/>
      <point x="-468" y="499" type="line"/>
    </contour>
    <contour>
      <point x="973" y="863" type="line"/>
      <point x="47" y="863" type="line"/>
      <point x="47" y="755" type="line"/>
      <point x="973" y="755" type="line"/>
    </contour>
    <contour>
      <point x="924" y="519" type="line"/>
      <point x="-2" y="519" type="line"/>
      <point x="-2" y="413" type="line"/>
      <point x="924" y="413" type="line"/>
    </contour>
  </outline>
</glyph>
<glyph name="numbersign_question.liga" format="2">
  <advance width="1200"/>
  <outline>
    <contour>
      <point x="-182" y="918" type="line"/>
      <point x="209" y="918" type="line"/>
      <point x="121" y="1026" type="line"/>
      <point x="-169" y="1026" type="line"/>
      <point x="-119" y="1374" type="line"/>
      <point x="-228" y="1374" type="line"/>
      <point x="-274" y="1026" type="line"/>
      <point x="-598" y="1026" type="line"/>
      <point x="-548" y="1374" type="line"/>
      <point x="-656" y="1374" type="line"/>
      <point x="-703" y="1026" type="line"/>
      <point x="-890" y="1026" type="line"/>
      <point x="-890" y="918" type="line"/>
      <point x="-717" y="918" type="line"/>
      <point x="-780" y="461" type="line"/>
      <point x="-964" y="461" type="line"/>
      <point x="-964" y="354" type="line"/>
      <point x="-794" y="354" type="line"/>
      <point x="-842" y="0" type="line"/>
      <point x="-733" y="0" type="line"/>
      <point x="-687" y="354" type="line"/>
      <point x="-366" y="354" type="line"/>
      <point x="-413" y="0" type="line"/>
      <point x="-304" y="0" type="line"/>
      <point x="-260" y="354" type="line"/>
      <point x="-71" y="354" type="line"/>
      <point x="-71" y="461" type="line"/>
      <point x="-244" y="461" type="line"/>
    </contour>
    <contour>
      <point x="-672" y="461" type="line"/>
      <point x="-611" y="918" type="line"/>
      <point x="-288" y="918" type="line"/>
      <point x="-351" y="461" type="line"/>
    </contour>
    <contour>
      <point x="601" y="1393" type="curve" smooth="yes"/>
      <point x="454" y="1393"/>
      <point x="202" y="1318"/>
      <point x="121" y="1026" type="curve"/>
      <point x="209" y="918" type="line"/>
      <point x="264" y="1227"/>
      <point x="492" y="1285"/>
      <point x="588" y="1285" type="curve" smooth="yes"/>
      <point x="735" y="1285"/>
      <point x="847" y="1214"/>
      <point x="847" y="1087" type="curve" smooth="yes"/>
      <point x="847" y="842"/>
      <point x="485" y="843"/>
      <point x="485" y="525" type="curve" smooth="yes"/>
      <point x="485" y="437" type="line"/>
      <point x="619" y="437" type="line"/>
      <point x="619" y="515" type="line" smooth="yes"/>
      <point x="619" y="824"/>
      <point x="976" y="774"/>
      <point x="976" y="1092" type="curve" smooth="yes"/>
      <point x="976" y="1244"/>
      <point x="829" y="1393"/>
    </contour>
    <contour>
      <point x="557" y="220" type="curve" smooth="yes"/>
      <point x="490" y="220"/>
      <point x="439" y="167"/>
      <point x="439" y="102" type="curve" smooth="yes"/>
      <point x="439" y="34"/>
      <point x="490" y="-20"/>
      <point x="557" y="-20" type="curve" smooth="yes"/>
      <point x="628" y="-20"/>
      <point x="679" y="34"/>
      <point x="679" y="102" type="curve" smooth="yes"/>
      <point x="679" y="167"/>
      <point x="628" y="220"/>
    </contour>
  </outline>
</glyph>
<glyph name="plus_plus.liga" format="2">
  <advance width="1200"/>
  <outline>
    <contour>
      <point x="-440" y="565" type="line"/>
      <point x="435" y="565" type="line"/>
      <point x="435" y="174" type="line"/>
      <point x="560" y="174" type="line"/>
      <point x="560" y="565" type="line"/>
      <point x="950" y="565" type="line"/>
      <point x="950" y="676" type="line"/>
      <point x="560" y="676" type="line"/>
      <point x="560" y="1071" type="line"/>
      <point x="435" y="1071" type="line"/>
      <point x="435" y="676" type="line"/>
      <point x="-440" y="676" type="line"/>
      <point x="-440" y="1071" type="line"/>
      <point x="-565" y="1071" type="line"/>
      <point x="-565" y="676" type="line"/>
      <point x="-950" y="676" type="line"/>
      <point x="-950" y="565" type="line"/>
      <point x="-565" y="565" type="line"/>
      <point x="-565" y="174" type="line"/>
      <point x="-440" y="174" type="line"/>
    </contour>
  </outline>
</glyph>
<glyph name="plus_plus_plus.liga" format="2">
  <advance width="1200"/>
  <outline>
    <contour>
      <point x="-540" y="565" type="line"/>
      <point x="335" y="565" type="line"/>
      <point x="335" y="174" type="line"/>
      <point x="460" y="174" type="line"/>
      <point x="460" y="565" type="line"/>
      <point x="850" y="565" type="line"/>
      <point x="850" y="676" type="line"/>
      <point x="460" y="676" type="line"/>
      <point x="460" y="1071" type="line"/>
      <point x="335" y="1071" type="line"/>
      <point x="335" y="676" type="line"/>
      <point x="-540" y="676" type="line"/>
      <point x="-540" y="1071" type="line"/>
      <point x="-665" y="1071" type="line"/>
      <point x="-665" y="676" type="line"/>
      <point x="-1540" y="676" type="line"/>
      <point x="-1540" y="1071" type="line"/>
      <point x="-1665" y="1071" type="line"/>
      <point x="-1665" y="676" type="line"/>
      <point x="-2050" y="676" type="line"/>
      <point x="-2050" y="565" type="line"/>
      <point x="-1665" y="565" type="line"/>
      <point x="-1665" y="174" type="line"/>
      <point x="-1540" y="174" type="line"/>
      <point x="-1540" y="565" type="line"/>
      <point x="-665" y="565" type="line"/>
      <point x="-665" y="174" type="line"/>
      <point x="-540" y="174" type="line"/>
    </contour>
  </outline>
</glyph>
<glyph name="question_equal.liga" format="2">
  <advance width="1200"/>
  <outline>
    <contour>
      <point x="870" y="863" type="line"/>
      <point x="-35" y="863" type="line"/>
      <point x="-202" y="748" type="line"/>
      <point x="870" y="748" type="line"/>
    </contour>
    <contour>
      <point x="870" y="496" type="line"/>
      <point x="-334" y="496" type="line"/>
      <point x="-334" y="380" type="line"/>
      <point x="870" y="380" type="line"/>
    </contour>
    <component base="question" xOffset="-1100"/>
  </outline>
</glyph>
<glyph name="underscore_bar_underscore.liga" format="2">
  <advance width="1200"/>
  <outline>
    <contour>
      <point x="-2000" y="-360" type="line"/>
      <point x="800" y="-360" type="line"/>
      <point x="800" y="-243" type="line"/>
      <point x="-2000" y="-243" type="line"/>
    </contour>
    <contour>
      <point x="-547" y="1445" type="line"/>
      <point x="-655" y="1445" type="line"/>
      <point x="-655" y="-317" type="line"/>
      <point x="-547" y="-317" type="line"/>
    </contour>
  </outline>
</glyph>
<glyph name="w_w_w.liga" format="2">
  <advance width="1200"/>
  <anchor x="-1800" y="0" name="bottom"/>
  <anchor x="-1800" y="1050" name="top"/>
  <outline>
    <contour>
      <point x="866" y="1050" type="line"/>
      <point x="711" y="76" type="line"/>
      <point x="541" y="916" type="line"/>
      <point x="362" y="916" type="line"/>
      <point x="152" y="76" type="line"/>
      <point x="11" y="916" type="line"/>
      <point x="-174" y="916" type="line"/>
      <point x="-340" y="76" type="line"/>
      <point x="-497" y="916" type="line"/>
      <point x="-681" y="916" type="line"/>
      <point x="-852" y="76" type="line"/>
      <point x="-1018" y="916" type="line"/>
      <point x="-1203" y="916" type="line"/>
      <point x="-1372" y="76" type="line"/>
      <point x="-1539" y="916" type="line"/>
      <point x="-1718" y="916" type="line"/>
      <point x="-1903" y="76" type="line"/>
      <point x="-2058" y="1050" type="line"/>
      <point x="-2194" y="1050" type="line"/>
      <point x="-1992" y="0" type="line"/>
      <point x="-1793" y="0" type="line"/>
      <point x="-1633" y="790" type="line"/>
      <point x="-1498" y="0" type="line"/>
      <point x="-1256" y="0" type="line"/>
      <point x="-1113" y="790" type="line"/>
      <point x="-975" y="0" type="line"/>
      <point x="-741" y="0" type="line"/>
      <point x="-593" y="790" type="line"/>
      <point x="-459" y="0" type="line"/>
      <point x="-217" y="0" type="line"/>
      <point x="-88" y="790" type="line"/>
      <point x="35" y="0" type="line"/>
      <point x="268" y="0" type="line"/>
      <point x="447" y="790" type="line"/>
      <point x="592" y="0" type="line"/>
      <point x="800" y="0" type="line"/>
      <point x="990" y="1050" type="line"/>
    </contour>
  </outline>
</glyph>
<glyph name="x.multiply" format="2">
  <advance width="1200"/>
  <outline>
    <contour>
      <point x="904" y="1041" type="line"/>
      <point x="600" y="738" type="line"/>
      <point x="290" y="1041" type="line"/>
      <point x="203" y="954" type="line"/>
      <point x="512" y="649" type="line"/>
      <point x="203" y="340" type="line"/>
      <point x="290" y="253" type="line"/>
      <point x="600" y="561" type="line"/>
      <point x="904" y="253" type="line"/>
      <point x="991" y="340" type="line"/>
      <point x="688" y="649" type="line"/>
      <point x="991" y="954" type="line"/>
    </contour>
  </outline>
</glyph>
